<svg xmlns="http://www.w3.org/2000/svg" width="1200" height="504" viewBox="0 0 1200 504" role="img" aria-labelledby="title desc">
<title id="title">Burner evaluation progress</title><desc id="desc">Time series of evaluation scores recorded at each Burner merge.</desc>
<style>text{font-family:ui-sans-serif,system-ui,-apple-system,BlinkMacSystemFont,"Segoe UI",sans-serif}.title{font-size:22px;font-weight:700;fill:#20242a}.axis{font-size:12px;fill:#59636e}.legend{font-size:13px;fill:#2f3740}.grid{stroke:#d8dee5;stroke-width:1}.plot{fill:#fff;stroke:#b7c0ca}</style>
<rect width="100%" height="100%" fill="#f8fafc" rx="14"/><text x="70" y="32" class="title">Burner evaluation progress</text>
<rect x="70" y="54" width="1098" height="276" class="plot"/><line x1="70" y1="330" x2="1168" y2="330" class="grid"/><text x="58" y="335" text-anchor="end" class="axis">0</text><line x1="70" y1="261" x2="1168" y2="261" class="grid"/><text x="58" y="266" text-anchor="end" class="axis">25</text><line x1="70" y1="192" x2="1168" y2="192" class="grid"/><text x="58" y="197" text-anchor="end" class="axis">50</text><line x1="70" y1="123" x2="1168" y2="123" class="grid"/><text x="58" y="128" text-anchor="end" class="axis">75</text><line x1="70" y1="54" x2="1168" y2="54" class="grid"/><text x="58" y="59" text-anchor="end" class="axis">100</text><polyline points="70.0,330.0 101.4,288.6 132.7,274.8 164.1,274.8 195.5,261.0 226.9,261.0 258.2,261.0 289.6,261.0 321.0,247.2 352.3,247.2 383.7,233.4 415.1,219.6 446.5,219.6 477.8,233.4 509.2,219.6 540.6,205.8 571.9,205.8 603.3,205.8 634.7,205.8 666.1,205.8 697.4,192.0 728.8,150.6 760.2,178.2 791.5,164.4 822.9,164.4 854.3,164.4 885.7,164.4 917.0,164.4 948.4,164.4 979.8,164.4 1011.1,164.4 1042.5,164.4 1073.9,150.6 1105.3,150.6 1136.6,150.6 1168.0,136.8" fill="none" stroke="#ff6b35" stroke-width="3" stroke-linejoin="round" stroke-linecap="round"/><circle cx="70.0" cy="330.0" r="3.5" fill="#ff6b35"/><circle cx="101.4" cy="288.6" r="3.5" fill="#ff6b35"/><circle cx="132.7" cy="274.8" r="3.5" fill="#ff6b35"/><circle cx="164.1" cy="274.8" r="3.5" fill="#ff6b35"/><circle cx="195.5" cy="261.0" r="3.5" fill="#ff6b35"/><circle cx="226.9" cy="261.0" r="3.5" fill="#ff6b35"/><circle cx="258.2" cy="261.0" r="3.5" fill="#ff6b35"/><circle cx="289.6" cy="261.0" r="3.5" fill="#ff6b35"/><circle cx="321.0" cy="247.2" r="3.5" fill="#ff6b35"/><circle cx="352.3" cy="247.2" r="3.5" fill="#ff6b35"/><circle cx="383.7" cy="233.4" r="3.5" fill="#ff6b35"/><circle cx="415.1" cy="219.6" r="3.5" fill="#ff6b35"/><circle cx="446.5" cy="219.6" r="3.5" fill="#ff6b35"/><circle cx="477.8" cy="233.4" r="3.5" fill="#ff6b35"/><circle cx="509.2" cy="219.6" r="3.5" fill="#ff6b35"/><circle cx="540.6" cy="205.8" r="3.5" fill="#ff6b35"/><circle cx="571.9" cy="205.8" r="3.5" fill="#ff6b35"/><circle cx="603.3" cy="205.8" r="3.5" fill="#ff6b35"/><circle cx="634.7" cy="205.8" r="3.5" fill="#ff6b35"/><circle cx="666.1" cy="205.8" r="3.5" fill="#ff6b35"/><circle cx="697.4" cy="192.0" r="3.5" fill="#ff6b35"/><circle cx="728.8" cy="150.6" r="3.5" fill="#ff6b35"/><circle cx="760.2" cy="178.2" r="3.5" fill="#ff6b35"/><circle cx="791.5" cy="164.4" r="3.5" fill="#ff6b35"/><circle cx="822.9" cy="164.4" r="3.5" fill="#ff6b35"/><circle cx="854.3" cy="164.4" r="3.5" fill="#ff6b35"/><circle cx="885.7" cy="164.4" r="3.5" fill="#ff6b35"/><circle cx="917.0" cy="164.4" r="3.5" fill="#ff6b35"/><circle cx="948.4" cy="164.4" r="3.5" fill="#ff6b35"/><circle cx="979.8" cy="164.4" r="3.5" fill="#ff6b35"/><circle cx="1011.1" cy="164.4" r="3.5" fill="#ff6b35"/><circle cx="1042.5" cy="164.4" r="3.5" fill="#ff6b35"/><circle cx="1073.9" cy="150.6" r="3.5" fill="#ff6b35"/><circle cx="1105.3" cy="150.6" r="3.5" fill="#ff6b35"/><circle cx="1136.6" cy="150.6" r="3.5" fill="#ff6b35"/><circle cx="1168.0" cy="136.8" r="3.5" fill="#ff6b35"/><polyline points="70.0,261.0 101.4,136.8 132.7,95.4 164.1,123.0 195.5,95.4 226.9,81.6 258.2,95.4 289.6,81.6 321.0,95.4 352.3,95.4 383.7,81.6 415.1,81.6 446.5,81.6 477.8,81.6 509.2,81.6 540.6,81.6 571.9,81.6 603.3,81.6 634.7,81.6 666.1,95.4 697.4,81.6 728.8,81.6 760.2,95.4 791.5,95.4 822.9,95.4 854.3,95.4 885.7,95.4 917.0,95.4 948.4,95.4 979.8,95.4 1011.1,95.4 1042.5,81.6 1073.9,81.6 1105.3,81.6 1136.6,81.6 1168.0,81.6" fill="none" stroke="#7c5cff" stroke-width="3" stroke-linejoin="round" stroke-linecap="round"/><circle cx="70.0" cy="261.0" r="3.5" fill="#7c5cff"/><circle cx="101.4" cy="136.8" r="3.5" fill="#7c5cff"/><circle cx="132.7" cy="95.4" r="3.5" fill="#7c5cff"/><circle cx="164.1" cy="123.0" r="3.5" fill="#7c5cff"/><circle cx="195.5" cy="95.4" r="3.5" fill="#7c5cff"/><circle cx="226.9" cy="81.6" r="3.5" fill="#7c5cff"/><circle cx="258.2" cy="95.4" r="3.5" fill="#7c5cff"/><circle cx="289.6" cy="81.6" r="3.5" fill="#7c5cff"/><circle cx="321.0" cy="95.4" r="3.5" fill="#7c5cff"/><circle cx="352.3" cy="95.4" r="3.5" fill="#7c5cff"/><circle cx="383.7" cy="81.6" r="3.5" fill="#7c5cff"/><circle cx="415.1" cy="81.6" r="3.5" fill="#7c5cff"/><circle cx="446.5" cy="81.6" r="3.5" fill="#7c5cff"/><circle cx="477.8" cy="81.6" r="3.5" fill="#7c5cff"/><circle cx="509.2" cy="81.6" r="3.5" fill="#7c5cff"/><circle cx="540.6" cy="81.6" r="3.5" fill="#7c5cff"/><circle cx="571.9" cy="81.6" r="3.5" fill="#7c5cff"/><circle cx="603.3" cy="81.6" r="3.5" fill="#7c5cff"/><circle cx="634.7" cy="81.6" r="3.5" fill="#7c5cff"/><circle cx="666.1" cy="95.4" r="3.5" fill="#7c5cff"/><circle cx="697.4" cy="81.6" r="3.5" fill="#7c5cff"/><circle cx="728.8" cy="81.6" r="3.5" fill="#7c5cff"/><circle cx="760.2" cy="95.4" r="3.5" fill="#7c5cff"/><circle cx="791.5" cy="95.4" r="3.5" fill="#7c5cff"/><circle cx="822.9" cy="95.4" r="3.5" fill="#7c5cff"/><circle cx="854.3" cy="95.4" r="3.5" fill="#7c5cff"/><circle cx="885.7" cy="95.4" r="3.5" fill="#7c5cff"/><circle cx="917.0" cy="95.4" r="3.5" fill="#7c5cff"/><circle cx="948.4" cy="95.4" r="3.5" fill="#7c5cff"/><circle cx="979.8" cy="95.4" r="3.5" fill="#7c5cff"/><circle cx="1011.1" cy="95.4" r="3.5" fill="#7c5cff"/><circle cx="1042.5" cy="81.6" r="3.5" fill="#7c5cff"/><circle cx="1073.9" cy="81.6" r="3.5" fill="#7c5cff"/><circle cx="1105.3" cy="81.6" r="3.5" fill="#7c5cff"/><circle cx="1136.6" cy="81.6" r="3.5" fill="#7c5cff"/><circle cx="1168.0" cy="81.6" r="3.5" fill="#7c5cff"/><polyline points="70.0,330.0 101.4,330.0 132.7,330.0 164.1,330.0 195.5,330.0 226.9,330.0 258.2,330.0 289.6,330.0 321.0,330.0 352.3,330.0 383.7,330.0 415.1,330.0 446.5,330.0 477.8,330.0 509.2,330.0 540.6,330.0 571.9,330.0 603.3,330.0 634.7,330.0 666.1,330.0 697.4,330.0 728.8,56.8 760.2,56.8 791.5,56.8 822.9,56.8 854.3,56.8 885.7,56.8 917.0,56.8 948.4,56.8 979.8,54.0 1011.1,54.0 1042.5,54.0 1073.9,54.0 1105.3,54.0 1136.6,54.0 1168.0,54.0" fill="none" stroke="#00a7a5" stroke-width="3" stroke-linejoin="round" stroke-linecap="round"/><circle cx="70.0" cy="330.0" r="3.5" fill="#00a7a5"/><circle cx="101.4" cy="330.0" r="3.5" fill="#00a7a5"/><circle cx="132.7" cy="330.0" r="3.5" fill="#00a7a5"/><circle cx="164.1" cy="330.0" r="3.5" fill="#00a7a5"/><circle cx="195.5" cy="330.0" r="3.5" fill="#00a7a5"/><circle cx="226.9" cy="330.0" r="3.5" fill="#00a7a5"/><circle cx="258.2" cy="330.0" r="3.5" fill="#00a7a5"/><circle cx="289.6" cy="330.0" r="3.5" fill="#00a7a5"/><circle cx="321.0" cy="330.0" r="3.5" fill="#00a7a5"/><circle cx="352.3" cy="330.0" r="3.5" fill="#00a7a5"/><circle cx="383.7" cy="330.0" r="3.5" fill="#00a7a5"/><circle cx="415.1" cy="330.0" r="3.5" fill="#00a7a5"/><circle cx="446.5" cy="330.0" r="3.5" fill="#00a7a5"/><circle cx="477.8" cy="330.0" r="3.5" fill="#00a7a5"/><circle cx="509.2" cy="330.0" r="3.5" fill="#00a7a5"/><circle cx="540.6" cy="330.0" r="3.5" fill="#00a7a5"/><circle cx="571.9" cy="330.0" r="3.5" fill="#00a7a5"/><circle cx="603.3" cy="330.0" r="3.5" fill="#00a7a5"/><circle cx="634.7" cy="330.0" r="3.5" fill="#00a7a5"/><circle cx="666.1" cy="330.0" r="3.5" fill="#00a7a5"/><circle cx="697.4" cy="330.0" r="3.5" fill="#00a7a5"/><circle cx="728.8" cy="56.8" r="3.5" fill="#00a7a5"/><circle cx="760.2" cy="56.8" r="3.5" fill="#00a7a5"/><circle cx="791.5" cy="56.8" r="3.5" fill="#00a7a5"/><circle cx="822.9" cy="56.8" r="3.5" fill="#00a7a5"/><circle cx="854.3" cy="56.8" r="3.5" fill="#00a7a5"/><circle cx="885.7" cy="56.8" r="3.5" fill="#00a7a5"/><circle cx="917.0" cy="56.8" r="3.5" fill="#00a7a5"/><circle cx="948.4" cy="56.8" r="3.5" fill="#00a7a5"/><circle cx="979.8" cy="54.0" r="3.5" fill="#00a7a5"/><circle cx="1011.1" cy="54.0" r="3.5" fill="#00a7a5"/><circle cx="1042.5" cy="54.0" r="3.5" fill="#00a7a5"/><circle cx="1073.9" cy="54.0" r="3.5" fill="#00a7a5"/><circle cx="1105.3" cy="54.0" r="3.5" fill="#00a7a5"/><circle cx="1136.6" cy="54.0" r="3.5" fill="#00a7a5"/><circle cx="1168.0" cy="54.0" r="3.5" fill="#00a7a5"/><polyline points="70.0,95.4 101.4,81.6 132.7,81.6 164.1,95.4 195.5,81.6 226.9,81.6 258.2,95.4 289.6,95.4 321.0,95.4 352.3,95.4 383.7,81.6 415.1,81.6 446.5,81.6 477.8,95.4 509.2,95.4 540.6,95.4 571.9,95.4 603.3,81.6 634.7,81.6 666.1,95.4 697.4,95.4 728.8,95.4 760.2,95.4 791.5,95.4 822.9,95.4 854.3,95.4 885.7,95.4 917.0,95.4 948.4,95.4 979.8,95.4 1011.1,95.4 1042.5,95.4 1073.9,95.4 1105.3,95.4 1136.6,95.4 1168.0,95.4" fill="none" stroke="#e6a700" stroke-width="3" stroke-linejoin="round" stroke-linecap="round"/><circle cx="70.0" cy="95.4" r="3.5" fill="#e6a700"/><circle cx="101.4" cy="81.6" r="3.5" fill="#e6a700"/><circle cx="132.7" cy="81.6" r="3.5" fill="#e6a700"/><circle cx="164.1" cy="95.4" r="3.5" fill="#e6a700"/><circle cx="195.5" cy="81.6" r="3.5" fill="#e6a700"/><circle cx="226.9" cy="81.6" r="3.5" fill="#e6a700"/><circle cx="258.2" cy="95.4" r="3.5" fill="#e6a700"/><circle cx="289.6" cy="95.4" r="3.5" fill="#e6a700"/><circle cx="321.0" cy="95.4" r="3.5" fill="#e6a700"/><circle cx="352.3" cy="95.4" r="3.5" fill="#e6a700"/><circle cx="383.7" cy="81.6" r="3.5" fill="#e6a700"/><circle cx="415.1" cy="81.6" r="3.5" fill="#e6a700"/><circle cx="446.5" cy="81.6" r="3.5" fill="#e6a700"/><circle cx="477.8" cy="95.4" r="3.5" fill="#e6a700"/><circle cx="509.2" cy="95.4" r="3.5" fill="#e6a700"/><circle cx="540.6" cy="95.4" r="3.5" fill="#e6a700"/><circle cx="571.9" cy="95.4" r="3.5" fill="#e6a700"/><circle cx="603.3" cy="81.6" r="3.5" fill="#e6a700"/><circle cx="634.7" cy="81.6" r="3.5" fill="#e6a700"/><circle cx="666.1" cy="95.4" r="3.5" fill="#e6a700"/><circle cx="697.4" cy="95.4" r="3.5" fill="#e6a700"/><circle cx="728.8" cy="95.4" r="3.5" fill="#e6a700"/><circle cx="760.2" cy="95.4" r="3.5" fill="#e6a700"/><circle cx="791.5" cy="95.4" r="3.5" fill="#e6a700"/><circle cx="822.9" cy="95.4" r="3.5" fill="#e6a700"/><circle cx="854.3" cy="95.4" r="3.5" fill="#e6a700"/><circle cx="885.7" cy="95.4" r="3.5" fill="#e6a700"/><circle cx="917.0" cy="95.4" r="3.5" fill="#e6a700"/><circle cx="948.4" cy="95.4" r="3.5" fill="#e6a700"/><circle cx="979.8" cy="95.4" r="3.5" fill="#e6a700"/><circle cx="1011.1" cy="95.4" r="3.5" fill="#e6a700"/><circle cx="1042.5" cy="95.4" r="3.5" fill="#e6a700"/><circle cx="1073.9" cy="95.4" r="3.5" fill="#e6a700"/><circle cx="1105.3" cy="95.4" r="3.5" fill="#e6a700"/><circle cx="1136.6" cy="95.4" r="3.5" fill="#e6a700"/><circle cx="1168.0" cy="95.4" r="3.5" fill="#e6a700"/><polyline points="70.0,330.0 101.4,302.4 132.7,288.6 164.1,288.6 195.5,288.6 226.9,274.8 258.2,274.8 289.6,274.8 321.0,274.8 352.3,274.8 383.7,274.8 415.1,261.0 446.5,261.0 477.8,261.0 509.2,261.0 540.6,261.0 571.9,288.6 603.3,261.0 634.7,261.0 666.1,261.0 697.4,247.2 728.8,219.6 760.2,261.0 791.5,261.0 822.9,261.0 854.3,261.0 885.7,261.0 917.0,261.0 948.4,261.0 979.8,261.0 1011.1,261.0 1042.5,261.0 1073.9,247.2 1105.3,247.2 1136.6,247.2 1168.0,233.4" fill="none" stroke="#d94f8a" stroke-width="3" stroke-linejoin="round" stroke-linecap="round"/><circle cx="70.0" cy="330.0" r="3.5" fill="#d94f8a"/><circle cx="101.4" cy="302.4" r="3.5" fill="#d94f8a"/><circle cx="132.7" cy="288.6" r="3.5" fill="#d94f8a"/><circle cx="164.1" cy="288.6" r="3.5" fill="#d94f8a"/><circle cx="195.5" cy="288.6" r="3.5" fill="#d94f8a"/><circle cx="226.9" cy="274.8" r="3.5" fill="#d94f8a"/><circle cx="258.2" cy="274.8" r="3.5" fill="#d94f8a"/><circle cx="289.6" cy="274.8" r="3.5" fill="#d94f8a"/><circle cx="321.0" cy="274.8" r="3.5" fill="#d94f8a"/><circle cx="352.3" cy="274.8" r="3.5" fill="#d94f8a"/><circle cx="383.7" cy="274.8" r="3.5" fill="#d94f8a"/><circle cx="415.1" cy="261.0" r="3.5" fill="#d94f8a"/><circle cx="446.5" cy="261.0" r="3.5" fill="#d94f8a"/><circle cx="477.8" cy="261.0" r="3.5" fill="#d94f8a"/><circle cx="509.2" cy="261.0" r="3.5" fill="#d94f8a"/><circle cx="540.6" cy="261.0" r="3.5" fill="#d94f8a"/><circle cx="571.9" cy="288.6" r="3.5" fill="#d94f8a"/><circle cx="603.3" cy="261.0" r="3.5" fill="#d94f8a"/><circle cx="634.7" cy="261.0" r="3.5" fill="#d94f8a"/><circle cx="666.1" cy="261.0" r="3.5" fill="#d94f8a"/><circle cx="697.4" cy="247.2" r="3.5" fill="#d94f8a"/><circle cx="728.8" cy="219.6" r="3.5" fill="#d94f8a"/><circle cx="760.2" cy="261.0" r="3.5" fill="#d94f8a"/><circle cx="791.5" cy="261.0" r="3.5" fill="#d94f8a"/><circle cx="822.9" cy="261.0" r="3.5" fill="#d94f8a"/><circle cx="854.3" cy="261.0" r="3.5" fill="#d94f8a"/><circle cx="885.7" cy="261.0" r="3.5" fill="#d94f8a"/><circle cx="917.0" cy="261.0" r="3.5" fill="#d94f8a"/><circle cx="948.4" cy="261.0" r="3.5" fill="#d94f8a"/><circle cx="979.8" cy="261.0" r="3.5" fill="#d94f8a"/><circle cx="1011.1" cy="261.0" r="3.5" fill="#d94f8a"/><circle cx="1042.5" cy="261.0" r="3.5" fill="#d94f8a"/><circle cx="1073.9" cy="247.2" r="3.5" fill="#d94f8a"/><circle cx="1105.3" cy="247.2" r="3.5" fill="#d94f8a"/><circle cx="1136.6" cy="247.2" r="3.5" fill="#d94f8a"/><circle cx="1168.0" cy="233.4" r="3.5" fill="#d94f8a"/><polyline points="70.0,330.0 101.4,274.8 132.7,67.8 164.1,67.8 195.5,54.0 226.9,54.0 258.2,54.0 289.6,54.0 321.0,67.8 352.3,54.0 383.7,54.0 415.1,54.0 446.5,54.0 477.8,67.8 509.2,54.0 540.6,54.0 571.9,54.0 603.3,54.0 634.7,54.0 666.1,81.6 697.4,81.6 728.8,81.6 760.2,81.6 791.5,81.6 822.9,81.6 854.3,81.6 885.7,81.6 917.0,81.6 948.4,81.6 979.8,81.6 1011.1,81.6 1042.5,81.6 1073.9,81.6 1105.3,81.6 1136.6,81.6 1168.0,81.6" fill="none" stroke="#2589bd" stroke-width="3" stroke-linejoin="round" stroke-linecap="round"/><circle cx="70.0" cy="330.0" r="3.5" fill="#2589bd"/><circle cx="101.4" cy="274.8" r="3.5" fill="#2589bd"/><circle cx="132.7" cy="67.8" r="3.5" fill="#2589bd"/><circle cx="164.1" cy="67.8" r="3.5" fill="#2589bd"/><circle cx="195.5" cy="54.0" r="3.5" fill="#2589bd"/><circle cx="226.9" cy="54.0" r="3.5" fill="#2589bd"/><circle cx="258.2" cy="54.0" r="3.5" fill="#2589bd"/><circle cx="289.6" cy="54.0" r="3.5" fill="#2589bd"/><circle cx="321.0" cy="67.8" r="3.5" fill="#2589bd"/><circle cx="352.3" cy="54.0" r="3.5" fill="#2589bd"/><circle cx="383.7" cy="54.0" r="3.5" fill="#2589bd"/><circle cx="415.1" cy="54.0" r="3.5" fill="#2589bd"/><circle cx="446.5" cy="54.0" r="3.5" fill="#2589bd"/><circle cx="477.8" cy="67.8" r="3.5" fill="#2589bd"/><circle cx="509.2" cy="54.0" r="3.5" fill="#2589bd"/><circle cx="540.6" cy="54.0" r="3.5" fill="#2589bd"/><circle cx="571.9" cy="54.0" r="3.5" fill="#2589bd"/><circle cx="603.3" cy="54.0" r="3.5" fill="#2589bd"/><circle cx="634.7" cy="54.0" r="3.5" fill="#2589bd"/><circle cx="666.1" cy="81.6" r="3.5" fill="#2589bd"/><circle cx="697.4" cy="81.6" r="3.5" fill="#2589bd"/><circle cx="728.8" cy="81.6" r="3.5" fill="#2589bd"/><circle cx="760.2" cy="81.6" r="3.5" fill="#2589bd"/><circle cx="791.5" cy="81.6" r="3.5" fill="#2589bd"/><circle cx="822.9" cy="81.6" r="3.5" fill="#2589bd"/><circle cx="854.3" cy="81.6" r="3.5" fill="#2589bd"/><circle cx="885.7" cy="81.6" r="3.5" fill="#2589bd"/><circle cx="917.0" cy="81.6" r="3.5" fill="#2589bd"/><circle cx="948.4" cy="81.6" r="3.5" fill="#2589bd"/><circle cx="979.8" cy="81.6" r="3.5" fill="#2589bd"/><circle cx="1011.1" cy="81.6" r="3.5" fill="#2589bd"/><circle cx="1042.5" cy="81.6" r="3.5" fill="#2589bd"/><circle cx="1073.9" cy="81.6" r="3.5" fill="#2589bd"/><circle cx="1105.3" cy="81.6" r="3.5" fill="#2589bd"/><circle cx="1136.6" cy="81.6" r="3.5" fill="#2589bd"/><circle cx="1168.0" cy="81.6" r="3.5" fill="#2589bd"/><text x="70" y="358" text-anchor="middle" class="axis">base 52971b0</text><text x="226.85714285714286" y="358" text-anchor="middle" class="axis">PR #352</text><text x="383.7142857142857" y="358" text-anchor="middle" class="axis">PR #367</text><text x="540.5714285714286" y="358" text-anchor="middle" class="axis">PR #383</text><text x="697.4285714285714" y="358" text-anchor="middle" class="axis">PR #394</text><text x="854.2857142857143" y="358" text-anchor="middle" class="axis">PR #400</text><text x="1011.1428571428571" y="358" text-anchor="middle" class="axis">PR #406</text><text x="1168" y="358" text-anchor="middle" class="axis">PR #414</text><line x1="70" y1="396" x2="96" y2="396" stroke="#ff6b35" stroke-width="4"/><text x="106" y="401" class="legend">Analytical database capability</text><line x1="619" y1="396" x2="645" y2="396" stroke="#7c5cff" stroke-width="4"/><text x="655" y="401" class="legend">Rust engineering quality</text><line x1="70" y1="424" x2="96" y2="424" stroke="#00a7a5" stroke-width="4"/><text x="106" y="429" class="legend">ClickHouse sustained parity</text><line x1="619" y1="424" x2="645" y2="424" stroke="#e6a700" stroke-width="4"/><text x="655" y="429" class="legend">Benchmark integrity and anti-gaming</text><line x1="70" y1="452" x2="96" y2="452" stroke="#d94f8a" stroke-width="4"/><text x="106" y="457" class="legend">ClickHouse feature comprehensiveness</text><line x1="619" y1="452" x2="645" y2="452" stroke="#2589bd" stroke-width="4"/><text x="655" y="457" class="legend">Evaluation progress accounting</text>
</svg>
