<svg xmlns="http://www.w3.org/2000/svg" width="1200" height="504" viewBox="0 0 1200 504" role="img" aria-labelledby="title desc">
<title id="title">Burner evaluation progress</title><desc id="desc">Time series of evaluation scores recorded at each Burner merge.</desc>
<style>text{font-family:ui-sans-serif,system-ui,-apple-system,BlinkMacSystemFont,"Segoe UI",sans-serif}.title{font-size:22px;font-weight:700;fill:#20242a}.axis{font-size:12px;fill:#59636e}.legend{font-size:13px;fill:#2f3740}.grid{stroke:#d8dee5;stroke-width:1}.plot{fill:#fff;stroke:#b7c0ca}</style>
<rect width="100%" height="100%" fill="#f8fafc" rx="14"/><text x="70" y="32" class="title">Burner evaluation progress</text>
<rect x="70" y="54" width="1098" height="276" class="plot"/><line x1="70" y1="330" x2="1168" y2="330" class="grid"/><text x="58" y="335" text-anchor="end" class="axis">0</text><line x1="70" y1="261" x2="1168" y2="261" class="grid"/><text x="58" y="266" text-anchor="end" class="axis">25</text><line x1="70" y1="192" x2="1168" y2="192" class="grid"/><text x="58" y="197" text-anchor="end" class="axis">50</text><line x1="70" y1="123" x2="1168" y2="123" class="grid"/><text x="58" y="128" text-anchor="end" class="axis">75</text><line x1="70" y1="54" x2="1168" y2="54" class="grid"/><text x="58" y="59" text-anchor="end" class="axis">100</text><polyline points="70.0,330.0 148.4,288.6 226.9,274.8 305.3,274.8 383.7,261.0 462.1,261.0 540.6,261.0 619.0,261.0 697.4,247.2 775.9,247.2 854.3,233.4 932.7,219.6 1011.1,219.6 1089.6,233.4 1168.0,219.6" fill="none" stroke="#ff6b35" stroke-width="3" stroke-linejoin="round" stroke-linecap="round"/><circle cx="70.0" cy="330.0" r="3.5" fill="#ff6b35"/><circle cx="148.4" cy="288.6" r="3.5" fill="#ff6b35"/><circle cx="226.9" cy="274.8" r="3.5" fill="#ff6b35"/><circle cx="305.3" cy="274.8" r="3.5" fill="#ff6b35"/><circle cx="383.7" cy="261.0" r="3.5" fill="#ff6b35"/><circle cx="462.1" cy="261.0" r="3.5" fill="#ff6b35"/><circle cx="540.6" cy="261.0" r="3.5" fill="#ff6b35"/><circle cx="619.0" cy="261.0" r="3.5" fill="#ff6b35"/><circle cx="697.4" cy="247.2" r="3.5" fill="#ff6b35"/><circle cx="775.9" cy="247.2" r="3.5" fill="#ff6b35"/><circle cx="854.3" cy="233.4" r="3.5" fill="#ff6b35"/><circle cx="932.7" cy="219.6" r="3.5" fill="#ff6b35"/><circle cx="1011.1" cy="219.6" r="3.5" fill="#ff6b35"/><circle cx="1089.6" cy="233.4" r="3.5" fill="#ff6b35"/><circle cx="1168.0" cy="219.6" r="3.5" fill="#ff6b35"/><polyline points="70.0,261.0 148.4,136.8 226.9,95.4 305.3,123.0 383.7,95.4 462.1,81.6 540.6,95.4 619.0,81.6 697.4,95.4 775.9,95.4 854.3,81.6 932.7,81.6 1011.1,81.6 1089.6,81.6 1168.0,81.6" fill="none" stroke="#7c5cff" stroke-width="3" stroke-linejoin="round" stroke-linecap="round"/><circle cx="70.0" cy="261.0" r="3.5" fill="#7c5cff"/><circle cx="148.4" cy="136.8" r="3.5" fill="#7c5cff"/><circle cx="226.9" cy="95.4" r="3.5" fill="#7c5cff"/><circle cx="305.3" cy="123.0" r="3.5" fill="#7c5cff"/><circle cx="383.7" cy="95.4" r="3.5" fill="#7c5cff"/><circle cx="462.1" cy="81.6" r="3.5" fill="#7c5cff"/><circle cx="540.6" cy="95.4" r="3.5" fill="#7c5cff"/><circle cx="619.0" cy="81.6" r="3.5" fill="#7c5cff"/><circle cx="697.4" cy="95.4" r="3.5" fill="#7c5cff"/><circle cx="775.9" cy="95.4" r="3.5" fill="#7c5cff"/><circle cx="854.3" cy="81.6" r="3.5" fill="#7c5cff"/><circle cx="932.7" cy="81.6" r="3.5" fill="#7c5cff"/><circle cx="1011.1" cy="81.6" r="3.5" fill="#7c5cff"/><circle cx="1089.6" cy="81.6" r="3.5" fill="#7c5cff"/><circle cx="1168.0" cy="81.6" r="3.5" fill="#7c5cff"/><polyline points="70.0,330.0 148.4,330.0 226.9,330.0 305.3,330.0 383.7,330.0 462.1,330.0 540.6,330.0 619.0,330.0 697.4,330.0 775.9,330.0 854.3,330.0 932.7,330.0 1011.1,330.0 1089.6,330.0 1168.0,330.0" fill="none" stroke="#00a7a5" stroke-width="3" stroke-linejoin="round" stroke-linecap="round"/><circle cx="70.0" cy="330.0" r="3.5" fill="#00a7a5"/><circle cx="148.4" cy="330.0" r="3.5" fill="#00a7a5"/><circle cx="226.9" cy="330.0" r="3.5" fill="#00a7a5"/><circle cx="305.3" cy="330.0" r="3.5" fill="#00a7a5"/><circle cx="383.7" cy="330.0" r="3.5" fill="#00a7a5"/><circle cx="462.1" cy="330.0" r="3.5" fill="#00a7a5"/><circle cx="540.6" cy="330.0" r="3.5" fill="#00a7a5"/><circle cx="619.0" cy="330.0" r="3.5" fill="#00a7a5"/><circle cx="697.4" cy="330.0" r="3.5" fill="#00a7a5"/><circle cx="775.9" cy="330.0" r="3.5" fill="#00a7a5"/><circle cx="854.3" cy="330.0" r="3.5" fill="#00a7a5"/><circle cx="932.7" cy="330.0" r="3.5" fill="#00a7a5"/><circle cx="1011.1" cy="330.0" r="3.5" fill="#00a7a5"/><circle cx="1089.6" cy="330.0" r="3.5" fill="#00a7a5"/><circle cx="1168.0" cy="330.0" r="3.5" fill="#00a7a5"/><polyline points="70.0,95.4 148.4,81.6 226.9,81.6 305.3,95.4 383.7,81.6 462.1,81.6 540.6,95.4 619.0,95.4 697.4,95.4 775.9,95.4 854.3,81.6 932.7,81.6 1011.1,81.6 1089.6,95.4 1168.0,95.4" fill="none" stroke="#e6a700" stroke-width="3" stroke-linejoin="round" stroke-linecap="round"/><circle cx="70.0" cy="95.4" r="3.5" fill="#e6a700"/><circle cx="148.4" cy="81.6" r="3.5" fill="#e6a700"/><circle cx="226.9" cy="81.6" r="3.5" fill="#e6a700"/><circle cx="305.3" cy="95.4" r="3.5" fill="#e6a700"/><circle cx="383.7" cy="81.6" r="3.5" fill="#e6a700"/><circle cx="462.1" cy="81.6" r="3.5" fill="#e6a700"/><circle cx="540.6" cy="95.4" r="3.5" fill="#e6a700"/><circle cx="619.0" cy="95.4" r="3.5" fill="#e6a700"/><circle cx="697.4" cy="95.4" r="3.5" fill="#e6a700"/><circle cx="775.9" cy="95.4" r="3.5" fill="#e6a700"/><circle cx="854.3" cy="81.6" r="3.5" fill="#e6a700"/><circle cx="932.7" cy="81.6" r="3.5" fill="#e6a700"/><circle cx="1011.1" cy="81.6" r="3.5" fill="#e6a700"/><circle cx="1089.6" cy="95.4" r="3.5" fill="#e6a700"/><circle cx="1168.0" cy="95.4" r="3.5" fill="#e6a700"/><polyline points="70.0,330.0 148.4,302.4 226.9,288.6 305.3,288.6 383.7,288.6 462.1,274.8 540.6,274.8 619.0,274.8 697.4,274.8 775.9,274.8 854.3,274.8 932.7,261.0 1011.1,261.0 1089.6,261.0 1168.0,261.0" fill="none" stroke="#d94f8a" stroke-width="3" stroke-linejoin="round" stroke-linecap="round"/><circle cx="70.0" cy="330.0" r="3.5" fill="#d94f8a"/><circle cx="148.4" cy="302.4" r="3.5" fill="#d94f8a"/><circle cx="226.9" cy="288.6" r="3.5" fill="#d94f8a"/><circle cx="305.3" cy="288.6" r="3.5" fill="#d94f8a"/><circle cx="383.7" cy="288.6" r="3.5" fill="#d94f8a"/><circle cx="462.1" cy="274.8" r="3.5" fill="#d94f8a"/><circle cx="540.6" cy="274.8" r="3.5" fill="#d94f8a"/><circle cx="619.0" cy="274.8" r="3.5" fill="#d94f8a"/><circle cx="697.4" cy="274.8" r="3.5" fill="#d94f8a"/><circle cx="775.9" cy="274.8" r="3.5" fill="#d94f8a"/><circle cx="854.3" cy="274.8" r="3.5" fill="#d94f8a"/><circle cx="932.7" cy="261.0" r="3.5" fill="#d94f8a"/><circle cx="1011.1" cy="261.0" r="3.5" fill="#d94f8a"/><circle cx="1089.6" cy="261.0" r="3.5" fill="#d94f8a"/><circle cx="1168.0" cy="261.0" r="3.5" fill="#d94f8a"/><polyline points="70.0,330.0 148.4,274.8 226.9,67.8 305.3,67.8 383.7,54.0 462.1,54.0 540.6,54.0 619.0,54.0 697.4,67.8 775.9,54.0 854.3,54.0 932.7,54.0 1011.1,54.0 1089.6,67.8 1168.0,54.0" fill="none" stroke="#2589bd" stroke-width="3" stroke-linejoin="round" stroke-linecap="round"/><circle cx="70.0" cy="330.0" r="3.5" fill="#2589bd"/><circle cx="148.4" cy="274.8" r="3.5" fill="#2589bd"/><circle cx="226.9" cy="67.8" r="3.5" fill="#2589bd"/><circle cx="305.3" cy="67.8" r="3.5" fill="#2589bd"/><circle cx="383.7" cy="54.0" r="3.5" fill="#2589bd"/><circle cx="462.1" cy="54.0" r="3.5" fill="#2589bd"/><circle cx="540.6" cy="54.0" r="3.5" fill="#2589bd"/><circle cx="619.0" cy="54.0" r="3.5" fill="#2589bd"/><circle cx="697.4" cy="67.8" r="3.5" fill="#2589bd"/><circle cx="775.9" cy="54.0" r="3.5" fill="#2589bd"/><circle cx="854.3" cy="54.0" r="3.5" fill="#2589bd"/><circle cx="932.7" cy="54.0" r="3.5" fill="#2589bd"/><circle cx="1011.1" cy="54.0" r="3.5" fill="#2589bd"/><circle cx="1089.6" cy="67.8" r="3.5" fill="#2589bd"/><circle cx="1168.0" cy="54.0" r="3.5" fill="#2589bd"/><text x="70" y="358" text-anchor="middle" class="axis">base 52971b0</text><text x="226.85714285714286" y="358" text-anchor="middle" class="axis">PR #345</text><text x="383.7142857142857" y="358" text-anchor="middle" class="axis">PR #348</text><text x="540.5714285714286" y="358" text-anchor="middle" class="axis">base 9d57f8e</text><text x="697.4285714285714" y="358" text-anchor="middle" class="axis">base 0791c58</text><text x="854.2857142857143" y="358" text-anchor="middle" class="axis">PR #367</text><text x="1011.1428571428571" y="358" text-anchor="middle" class="axis">PR #373</text><text x="1168" y="358" text-anchor="middle" class="axis">PR #379</text><line x1="70" y1="396" x2="96" y2="396" stroke="#ff6b35" stroke-width="4"/><text x="106" y="401" class="legend">Analytical database capability</text><line x1="619" y1="396" x2="645" y2="396" stroke="#7c5cff" stroke-width="4"/><text x="655" y="401" class="legend">Rust engineering quality</text><line x1="70" y1="424" x2="96" y2="424" stroke="#00a7a5" stroke-width="4"/><text x="106" y="429" class="legend">ClickHouse sustained parity</text><line x1="619" y1="424" x2="645" y2="424" stroke="#e6a700" stroke-width="4"/><text x="655" y="429" class="legend">Benchmark integrity and anti-gaming</text><line x1="70" y1="452" x2="96" y2="452" stroke="#d94f8a" stroke-width="4"/><text x="106" y="457" class="legend">ClickHouse feature comprehensiveness</text><line x1="619" y1="452" x2="645" y2="452" stroke="#2589bd" stroke-width="4"/><text x="655" y="457" class="legend">Evaluation progress accounting</text>
</svg>
