<svg xmlns="http://www.w3.org/2000/svg" width="1200" height="504" viewBox="0 0 1200 504" role="img" aria-labelledby="title desc">
<title id="title">Burner evaluation progress</title><desc id="desc">Time series of evaluation scores recorded at each Burner merge.</desc>
<style>text{font-family:ui-sans-serif,system-ui,-apple-system,BlinkMacSystemFont,"Segoe UI",sans-serif}.title{font-size:22px;font-weight:700;fill:#20242a}.axis{font-size:12px;fill:#59636e}.legend{font-size:13px;fill:#2f3740}.grid{stroke:#d8dee5;stroke-width:1}.plot{fill:#fff;stroke:#b7c0ca}</style>
<rect width="100%" height="100%" fill="#f8fafc" rx="14"/><text x="70" y="32" class="title">Burner evaluation progress</text>
<rect x="70" y="54" width="1098" height="276" class="plot"/><line x1="70" y1="330" x2="1168" y2="330" class="grid"/><text x="58" y="335" text-anchor="end" class="axis">0</text><line x1="70" y1="261" x2="1168" y2="261" class="grid"/><text x="58" y="266" text-anchor="end" class="axis">25</text><line x1="70" y1="192" x2="1168" y2="192" class="grid"/><text x="58" y="197" text-anchor="end" class="axis">50</text><line x1="70" y1="123" x2="1168" y2="123" class="grid"/><text x="58" y="128" text-anchor="end" class="axis">75</text><line x1="70" y1="54" x2="1168" y2="54" class="grid"/><text x="58" y="59" text-anchor="end" class="axis">100</text><polyline points="70.0,330.0 94.4,288.6 118.8,274.8 143.2,274.8 167.6,261.0 192.0,261.0 216.4,261.0 240.8,261.0 265.2,247.2 289.6,247.2 314.0,233.4 338.4,219.6 362.8,219.6 387.2,233.4 411.6,219.6 436.0,205.8 460.4,205.8 484.8,205.8 509.2,205.8 533.6,205.8 558.0,192.0 582.4,150.6 606.8,178.2 631.2,164.4 655.6,164.4 680.0,164.4 704.4,164.4 728.8,164.4 753.2,164.4 777.6,164.4 802.0,164.4 826.4,164.4 850.8,150.6 875.2,150.6 899.6,150.6 924.0,136.8 948.4,136.8 972.8,136.8 997.2,136.8 1021.6,136.8 1046.0,123.0 1070.4,123.0 1094.8,123.0 1119.2,123.0 1143.6,123.0 1168.0,123.0" fill="none" stroke="#ff6b35" stroke-width="3" stroke-linejoin="round" stroke-linecap="round"/><circle cx="70.0" cy="330.0" r="3.5" fill="#ff6b35"/><circle cx="94.4" cy="288.6" r="3.5" fill="#ff6b35"/><circle cx="118.8" cy="274.8" r="3.5" fill="#ff6b35"/><circle cx="143.2" cy="274.8" r="3.5" fill="#ff6b35"/><circle cx="167.6" cy="261.0" r="3.5" fill="#ff6b35"/><circle cx="192.0" cy="261.0" r="3.5" fill="#ff6b35"/><circle cx="216.4" cy="261.0" r="3.5" fill="#ff6b35"/><circle cx="240.8" cy="261.0" r="3.5" fill="#ff6b35"/><circle cx="265.2" cy="247.2" r="3.5" fill="#ff6b35"/><circle cx="289.6" cy="247.2" r="3.5" fill="#ff6b35"/><circle cx="314.0" cy="233.4" r="3.5" fill="#ff6b35"/><circle cx="338.4" cy="219.6" r="3.5" fill="#ff6b35"/><circle cx="362.8" cy="219.6" r="3.5" fill="#ff6b35"/><circle cx="387.2" cy="233.4" r="3.5" fill="#ff6b35"/><circle cx="411.6" cy="219.6" r="3.5" fill="#ff6b35"/><circle cx="436.0" cy="205.8" r="3.5" fill="#ff6b35"/><circle cx="460.4" cy="205.8" r="3.5" fill="#ff6b35"/><circle cx="484.8" cy="205.8" r="3.5" fill="#ff6b35"/><circle cx="509.2" cy="205.8" r="3.5" fill="#ff6b35"/><circle cx="533.6" cy="205.8" r="3.5" fill="#ff6b35"/><circle cx="558.0" cy="192.0" r="3.5" fill="#ff6b35"/><circle cx="582.4" cy="150.6" r="3.5" fill="#ff6b35"/><circle cx="606.8" cy="178.2" r="3.5" fill="#ff6b35"/><circle cx="631.2" cy="164.4" r="3.5" fill="#ff6b35"/><circle cx="655.6" cy="164.4" r="3.5" fill="#ff6b35"/><circle cx="680.0" cy="164.4" r="3.5" fill="#ff6b35"/><circle cx="704.4" cy="164.4" r="3.5" fill="#ff6b35"/><circle cx="728.8" cy="164.4" r="3.5" fill="#ff6b35"/><circle cx="753.2" cy="164.4" r="3.5" fill="#ff6b35"/><circle cx="777.6" cy="164.4" r="3.5" fill="#ff6b35"/><circle cx="802.0" cy="164.4" r="3.5" fill="#ff6b35"/><circle cx="826.4" cy="164.4" r="3.5" fill="#ff6b35"/><circle cx="850.8" cy="150.6" r="3.5" fill="#ff6b35"/><circle cx="875.2" cy="150.6" r="3.5" fill="#ff6b35"/><circle cx="899.6" cy="150.6" r="3.5" fill="#ff6b35"/><circle cx="924.0" cy="136.8" r="3.5" fill="#ff6b35"/><circle cx="948.4" cy="136.8" r="3.5" fill="#ff6b35"/><circle cx="972.8" cy="136.8" r="3.5" fill="#ff6b35"/><circle cx="997.2" cy="136.8" r="3.5" fill="#ff6b35"/><circle cx="1021.6" cy="136.8" r="3.5" fill="#ff6b35"/><circle cx="1046.0" cy="123.0" r="3.5" fill="#ff6b35"/><circle cx="1070.4" cy="123.0" r="3.5" fill="#ff6b35"/><circle cx="1094.8" cy="123.0" r="3.5" fill="#ff6b35"/><circle cx="1119.2" cy="123.0" r="3.5" fill="#ff6b35"/><circle cx="1143.6" cy="123.0" r="3.5" fill="#ff6b35"/><circle cx="1168.0" cy="123.0" r="3.5" fill="#ff6b35"/><polyline points="70.0,261.0 94.4,136.8 118.8,95.4 143.2,123.0 167.6,95.4 192.0,81.6 216.4,95.4 240.8,81.6 265.2,95.4 289.6,95.4 314.0,81.6 338.4,81.6 362.8,81.6 387.2,81.6 411.6,81.6 436.0,81.6 460.4,81.6 484.8,81.6 509.2,81.6 533.6,95.4 558.0,81.6 582.4,81.6 606.8,95.4 631.2,95.4 655.6,95.4 680.0,95.4 704.4,95.4 728.8,95.4 753.2,95.4 777.6,95.4 802.0,95.4 826.4,81.6 850.8,81.6 875.2,81.6 899.6,81.6 924.0,81.6 948.4,81.6 972.8,81.6 997.2,81.6 1021.6,81.6 1046.0,81.6 1070.4,81.6 1094.8,81.6 1119.2,81.6 1143.6,81.6 1168.0,81.6" fill="none" stroke="#7c5cff" stroke-width="3" stroke-linejoin="round" stroke-linecap="round"/><circle cx="70.0" cy="261.0" r="3.5" fill="#7c5cff"/><circle cx="94.4" cy="136.8" r="3.5" fill="#7c5cff"/><circle cx="118.8" cy="95.4" r="3.5" fill="#7c5cff"/><circle cx="143.2" cy="123.0" r="3.5" fill="#7c5cff"/><circle cx="167.6" cy="95.4" r="3.5" fill="#7c5cff"/><circle cx="192.0" cy="81.6" r="3.5" fill="#7c5cff"/><circle cx="216.4" cy="95.4" r="3.5" fill="#7c5cff"/><circle cx="240.8" cy="81.6" r="3.5" fill="#7c5cff"/><circle cx="265.2" cy="95.4" r="3.5" fill="#7c5cff"/><circle cx="289.6" cy="95.4" r="3.5" fill="#7c5cff"/><circle cx="314.0" cy="81.6" r="3.5" fill="#7c5cff"/><circle cx="338.4" cy="81.6" r="3.5" fill="#7c5cff"/><circle cx="362.8" cy="81.6" r="3.5" fill="#7c5cff"/><circle cx="387.2" cy="81.6" r="3.5" fill="#7c5cff"/><circle cx="411.6" cy="81.6" r="3.5" fill="#7c5cff"/><circle cx="436.0" cy="81.6" r="3.5" fill="#7c5cff"/><circle cx="460.4" cy="81.6" r="3.5" fill="#7c5cff"/><circle cx="484.8" cy="81.6" r="3.5" fill="#7c5cff"/><circle cx="509.2" cy="81.6" r="3.5" fill="#7c5cff"/><circle cx="533.6" cy="95.4" r="3.5" fill="#7c5cff"/><circle cx="558.0" cy="81.6" r="3.5" fill="#7c5cff"/><circle cx="582.4" cy="81.6" r="3.5" fill="#7c5cff"/><circle cx="606.8" cy="95.4" r="3.5" fill="#7c5cff"/><circle cx="631.2" cy="95.4" r="3.5" fill="#7c5cff"/><circle cx="655.6" cy="95.4" r="3.5" fill="#7c5cff"/><circle cx="680.0" cy="95.4" r="3.5" fill="#7c5cff"/><circle cx="704.4" cy="95.4" r="3.5" fill="#7c5cff"/><circle cx="728.8" cy="95.4" r="3.5" fill="#7c5cff"/><circle cx="753.2" cy="95.4" r="3.5" fill="#7c5cff"/><circle cx="777.6" cy="95.4" r="3.5" fill="#7c5cff"/><circle cx="802.0" cy="95.4" r="3.5" fill="#7c5cff"/><circle cx="826.4" cy="81.6" r="3.5" fill="#7c5cff"/><circle cx="850.8" cy="81.6" r="3.5" fill="#7c5cff"/><circle cx="875.2" cy="81.6" r="3.5" fill="#7c5cff"/><circle cx="899.6" cy="81.6" r="3.5" fill="#7c5cff"/><circle cx="924.0" cy="81.6" r="3.5" fill="#7c5cff"/><circle cx="948.4" cy="81.6" r="3.5" fill="#7c5cff"/><circle cx="972.8" cy="81.6" r="3.5" fill="#7c5cff"/><circle cx="997.2" cy="81.6" r="3.5" fill="#7c5cff"/><circle cx="1021.6" cy="81.6" r="3.5" fill="#7c5cff"/><circle cx="1046.0" cy="81.6" r="3.5" fill="#7c5cff"/><circle cx="1070.4" cy="81.6" r="3.5" fill="#7c5cff"/><circle cx="1094.8" cy="81.6" r="3.5" fill="#7c5cff"/><circle cx="1119.2" cy="81.6" r="3.5" fill="#7c5cff"/><circle cx="1143.6" cy="81.6" r="3.5" fill="#7c5cff"/><circle cx="1168.0" cy="81.6" r="3.5" fill="#7c5cff"/><polyline points="70.0,330.0 94.4,330.0 118.8,330.0 143.2,330.0 167.6,330.0 192.0,330.0 216.4,330.0 240.8,330.0 265.2,330.0 289.6,330.0 314.0,330.0 338.4,330.0 362.8,330.0 387.2,330.0 411.6,330.0 436.0,330.0 460.4,330.0 484.8,330.0 509.2,330.0 533.6,330.0 558.0,330.0 582.4,56.8 606.8,56.8 631.2,56.8 655.6,56.8 680.0,56.8 704.4,56.8 728.8,56.8 753.2,56.8 777.6,54.0 802.0,54.0 826.4,54.0 850.8,54.0 875.2,54.0 899.6,54.0 924.0,54.0 948.4,54.0 972.8,54.0 997.2,54.0 1021.6,54.0 1046.0,54.0 1070.4,54.0 1094.8,54.0 1119.2,54.0 1143.6,54.0 1168.0,54.0" fill="none" stroke="#00a7a5" stroke-width="3" stroke-linejoin="round" stroke-linecap="round"/><circle cx="70.0" cy="330.0" r="3.5" fill="#00a7a5"/><circle cx="94.4" cy="330.0" r="3.5" fill="#00a7a5"/><circle cx="118.8" cy="330.0" r="3.5" fill="#00a7a5"/><circle cx="143.2" cy="330.0" r="3.5" fill="#00a7a5"/><circle cx="167.6" cy="330.0" r="3.5" fill="#00a7a5"/><circle cx="192.0" cy="330.0" r="3.5" fill="#00a7a5"/><circle cx="216.4" cy="330.0" r="3.5" fill="#00a7a5"/><circle cx="240.8" cy="330.0" r="3.5" fill="#00a7a5"/><circle cx="265.2" cy="330.0" r="3.5" fill="#00a7a5"/><circle cx="289.6" cy="330.0" r="3.5" fill="#00a7a5"/><circle cx="314.0" cy="330.0" r="3.5" fill="#00a7a5"/><circle cx="338.4" cy="330.0" r="3.5" fill="#00a7a5"/><circle cx="362.8" cy="330.0" r="3.5" fill="#00a7a5"/><circle cx="387.2" cy="330.0" r="3.5" fill="#00a7a5"/><circle cx="411.6" cy="330.0" r="3.5" fill="#00a7a5"/><circle cx="436.0" cy="330.0" r="3.5" fill="#00a7a5"/><circle cx="460.4" cy="330.0" r="3.5" fill="#00a7a5"/><circle cx="484.8" cy="330.0" r="3.5" fill="#00a7a5"/><circle cx="509.2" cy="330.0" r="3.5" fill="#00a7a5"/><circle cx="533.6" cy="330.0" r="3.5" fill="#00a7a5"/><circle cx="558.0" cy="330.0" r="3.5" fill="#00a7a5"/><circle cx="582.4" cy="56.8" r="3.5" fill="#00a7a5"/><circle cx="606.8" cy="56.8" r="3.5" fill="#00a7a5"/><circle cx="631.2" cy="56.8" r="3.5" fill="#00a7a5"/><circle cx="655.6" cy="56.8" r="3.5" fill="#00a7a5"/><circle cx="680.0" cy="56.8" r="3.5" fill="#00a7a5"/><circle cx="704.4" cy="56.8" r="3.5" fill="#00a7a5"/><circle cx="728.8" cy="56.8" r="3.5" fill="#00a7a5"/><circle cx="753.2" cy="56.8" r="3.5" fill="#00a7a5"/><circle cx="777.6" cy="54.0" r="3.5" fill="#00a7a5"/><circle cx="802.0" cy="54.0" r="3.5" fill="#00a7a5"/><circle cx="826.4" cy="54.0" r="3.5" fill="#00a7a5"/><circle cx="850.8" cy="54.0" r="3.5" fill="#00a7a5"/><circle cx="875.2" cy="54.0" r="3.5" fill="#00a7a5"/><circle cx="899.6" cy="54.0" r="3.5" fill="#00a7a5"/><circle cx="924.0" cy="54.0" r="3.5" fill="#00a7a5"/><circle cx="948.4" cy="54.0" r="3.5" fill="#00a7a5"/><circle cx="972.8" cy="54.0" r="3.5" fill="#00a7a5"/><circle cx="997.2" cy="54.0" r="3.5" fill="#00a7a5"/><circle cx="1021.6" cy="54.0" r="3.5" fill="#00a7a5"/><circle cx="1046.0" cy="54.0" r="3.5" fill="#00a7a5"/><circle cx="1070.4" cy="54.0" r="3.5" fill="#00a7a5"/><circle cx="1094.8" cy="54.0" r="3.5" fill="#00a7a5"/><circle cx="1119.2" cy="54.0" r="3.5" fill="#00a7a5"/><circle cx="1143.6" cy="54.0" r="3.5" fill="#00a7a5"/><circle cx="1168.0" cy="54.0" r="3.5" fill="#00a7a5"/><polyline points="70.0,95.4 94.4,81.6 118.8,81.6 143.2,95.4 167.6,81.6 192.0,81.6 216.4,95.4 240.8,95.4 265.2,95.4 289.6,95.4 314.0,81.6 338.4,81.6 362.8,81.6 387.2,95.4 411.6,95.4 436.0,95.4 460.4,95.4 484.8,81.6 509.2,81.6 533.6,95.4 558.0,95.4 582.4,95.4 606.8,95.4 631.2,95.4 655.6,95.4 680.0,95.4 704.4,95.4 728.8,95.4 753.2,95.4 777.6,95.4 802.0,95.4 826.4,95.4 850.8,95.4 875.2,95.4 899.6,95.4 924.0,95.4 948.4,95.4 972.8,95.4 997.2,95.4 1021.6,95.4 1046.0,95.4 1070.4,95.4 1094.8,95.4 1119.2,95.4 1143.6,95.4 1168.0,95.4" fill="none" stroke="#e6a700" stroke-width="3" stroke-linejoin="round" stroke-linecap="round"/><circle cx="70.0" cy="95.4" r="3.5" fill="#e6a700"/><circle cx="94.4" cy="81.6" r="3.5" fill="#e6a700"/><circle cx="118.8" cy="81.6" r="3.5" fill="#e6a700"/><circle cx="143.2" cy="95.4" r="3.5" fill="#e6a700"/><circle cx="167.6" cy="81.6" r="3.5" fill="#e6a700"/><circle cx="192.0" cy="81.6" r="3.5" fill="#e6a700"/><circle cx="216.4" cy="95.4" r="3.5" fill="#e6a700"/><circle cx="240.8" cy="95.4" r="3.5" fill="#e6a700"/><circle cx="265.2" cy="95.4" r="3.5" fill="#e6a700"/><circle cx="289.6" cy="95.4" r="3.5" fill="#e6a700"/><circle cx="314.0" cy="81.6" r="3.5" fill="#e6a700"/><circle cx="338.4" cy="81.6" r="3.5" fill="#e6a700"/><circle cx="362.8" cy="81.6" r="3.5" fill="#e6a700"/><circle cx="387.2" cy="95.4" r="3.5" fill="#e6a700"/><circle cx="411.6" cy="95.4" r="3.5" fill="#e6a700"/><circle cx="436.0" cy="95.4" r="3.5" fill="#e6a700"/><circle cx="460.4" cy="95.4" r="3.5" fill="#e6a700"/><circle cx="484.8" cy="81.6" r="3.5" fill="#e6a700"/><circle cx="509.2" cy="81.6" r="3.5" fill="#e6a700"/><circle cx="533.6" cy="95.4" r="3.5" fill="#e6a700"/><circle cx="558.0" cy="95.4" r="3.5" fill="#e6a700"/><circle cx="582.4" cy="95.4" r="3.5" fill="#e6a700"/><circle cx="606.8" cy="95.4" r="3.5" fill="#e6a700"/><circle cx="631.2" cy="95.4" r="3.5" fill="#e6a700"/><circle cx="655.6" cy="95.4" r="3.5" fill="#e6a700"/><circle cx="680.0" cy="95.4" r="3.5" fill="#e6a700"/><circle cx="704.4" cy="95.4" r="3.5" fill="#e6a700"/><circle cx="728.8" cy="95.4" r="3.5" fill="#e6a700"/><circle cx="753.2" cy="95.4" r="3.5" fill="#e6a700"/><circle cx="777.6" cy="95.4" r="3.5" fill="#e6a700"/><circle cx="802.0" cy="95.4" r="3.5" fill="#e6a700"/><circle cx="826.4" cy="95.4" r="3.5" fill="#e6a700"/><circle cx="850.8" cy="95.4" r="3.5" fill="#e6a700"/><circle cx="875.2" cy="95.4" r="3.5" fill="#e6a700"/><circle cx="899.6" cy="95.4" r="3.5" fill="#e6a700"/><circle cx="924.0" cy="95.4" r="3.5" fill="#e6a700"/><circle cx="948.4" cy="95.4" r="3.5" fill="#e6a700"/><circle cx="972.8" cy="95.4" r="3.5" fill="#e6a700"/><circle cx="997.2" cy="95.4" r="3.5" fill="#e6a700"/><circle cx="1021.6" cy="95.4" r="3.5" fill="#e6a700"/><circle cx="1046.0" cy="95.4" r="3.5" fill="#e6a700"/><circle cx="1070.4" cy="95.4" r="3.5" fill="#e6a700"/><circle cx="1094.8" cy="95.4" r="3.5" fill="#e6a700"/><circle cx="1119.2" cy="95.4" r="3.5" fill="#e6a700"/><circle cx="1143.6" cy="95.4" r="3.5" fill="#e6a700"/><circle cx="1168.0" cy="95.4" r="3.5" fill="#e6a700"/><polyline points="70.0,330.0 94.4,302.4 118.8,288.6 143.2,288.6 167.6,288.6 192.0,274.8 216.4,274.8 240.8,274.8 265.2,274.8 289.6,274.8 314.0,274.8 338.4,261.0 362.8,261.0 387.2,261.0 411.6,261.0 436.0,261.0 460.4,288.6 484.8,261.0 509.2,261.0 533.6,261.0 558.0,247.2 582.4,219.6 606.8,261.0 631.2,261.0 655.6,261.0 680.0,261.0 704.4,261.0 728.8,261.0 753.2,261.0 777.6,261.0 802.0,261.0 826.4,261.0 850.8,247.2 875.2,247.2 899.6,247.2 924.0,233.4 948.4,233.4 972.8,233.4 997.2,233.4 1021.6,233.4 1046.0,233.4 1070.4,233.4 1094.8,233.4 1119.2,233.4 1143.6,233.4 1168.0,233.4" fill="none" stroke="#d94f8a" stroke-width="3" stroke-linejoin="round" stroke-linecap="round"/><circle cx="70.0" cy="330.0" r="3.5" fill="#d94f8a"/><circle cx="94.4" cy="302.4" r="3.5" fill="#d94f8a"/><circle cx="118.8" cy="288.6" r="3.5" fill="#d94f8a"/><circle cx="143.2" cy="288.6" r="3.5" fill="#d94f8a"/><circle cx="167.6" cy="288.6" r="3.5" fill="#d94f8a"/><circle cx="192.0" cy="274.8" r="3.5" fill="#d94f8a"/><circle cx="216.4" cy="274.8" r="3.5" fill="#d94f8a"/><circle cx="240.8" cy="274.8" r="3.5" fill="#d94f8a"/><circle cx="265.2" cy="274.8" r="3.5" fill="#d94f8a"/><circle cx="289.6" cy="274.8" r="3.5" fill="#d94f8a"/><circle cx="314.0" cy="274.8" r="3.5" fill="#d94f8a"/><circle cx="338.4" cy="261.0" r="3.5" fill="#d94f8a"/><circle cx="362.8" cy="261.0" r="3.5" fill="#d94f8a"/><circle cx="387.2" cy="261.0" r="3.5" fill="#d94f8a"/><circle cx="411.6" cy="261.0" r="3.5" fill="#d94f8a"/><circle cx="436.0" cy="261.0" r="3.5" fill="#d94f8a"/><circle cx="460.4" cy="288.6" r="3.5" fill="#d94f8a"/><circle cx="484.8" cy="261.0" r="3.5" fill="#d94f8a"/><circle cx="509.2" cy="261.0" r="3.5" fill="#d94f8a"/><circle cx="533.6" cy="261.0" r="3.5" fill="#d94f8a"/><circle cx="558.0" cy="247.2" r="3.5" fill="#d94f8a"/><circle cx="582.4" cy="219.6" r="3.5" fill="#d94f8a"/><circle cx="606.8" cy="261.0" r="3.5" fill="#d94f8a"/><circle cx="631.2" cy="261.0" r="3.5" fill="#d94f8a"/><circle cx="655.6" cy="261.0" r="3.5" fill="#d94f8a"/><circle cx="680.0" cy="261.0" r="3.5" fill="#d94f8a"/><circle cx="704.4" cy="261.0" r="3.5" fill="#d94f8a"/><circle cx="728.8" cy="261.0" r="3.5" fill="#d94f8a"/><circle cx="753.2" cy="261.0" r="3.5" fill="#d94f8a"/><circle cx="777.6" cy="261.0" r="3.5" fill="#d94f8a"/><circle cx="802.0" cy="261.0" r="3.5" fill="#d94f8a"/><circle cx="826.4" cy="261.0" r="3.5" fill="#d94f8a"/><circle cx="850.8" cy="247.2" r="3.5" fill="#d94f8a"/><circle cx="875.2" cy="247.2" r="3.5" fill="#d94f8a"/><circle cx="899.6" cy="247.2" r="3.5" fill="#d94f8a"/><circle cx="924.0" cy="233.4" r="3.5" fill="#d94f8a"/><circle cx="948.4" cy="233.4" r="3.5" fill="#d94f8a"/><circle cx="972.8" cy="233.4" r="3.5" fill="#d94f8a"/><circle cx="997.2" cy="233.4" r="3.5" fill="#d94f8a"/><circle cx="1021.6" cy="233.4" r="3.5" fill="#d94f8a"/><circle cx="1046.0" cy="233.4" r="3.5" fill="#d94f8a"/><circle cx="1070.4" cy="233.4" r="3.5" fill="#d94f8a"/><circle cx="1094.8" cy="233.4" r="3.5" fill="#d94f8a"/><circle cx="1119.2" cy="233.4" r="3.5" fill="#d94f8a"/><circle cx="1143.6" cy="233.4" r="3.5" fill="#d94f8a"/><circle cx="1168.0" cy="233.4" r="3.5" fill="#d94f8a"/><polyline points="70.0,330.0 94.4,274.8 118.8,67.8 143.2,67.8 167.6,54.0 192.0,54.0 216.4,54.0 240.8,54.0 265.2,67.8 289.6,54.0 314.0,54.0 338.4,54.0 362.8,54.0 387.2,67.8 411.6,54.0 436.0,54.0 460.4,54.0 484.8,54.0 509.2,54.0 533.6,81.6 558.0,81.6 582.4,81.6 606.8,81.6 631.2,81.6 655.6,81.6 680.0,81.6 704.4,81.6 728.8,81.6 753.2,81.6 777.6,81.6 802.0,81.6 826.4,81.6 850.8,81.6 875.2,81.6 899.6,81.6 924.0,81.6 948.4,81.6 972.8,81.6 997.2,81.6 1021.6,81.6 1046.0,81.6 1070.4,81.6 1094.8,81.6 1119.2,81.6 1143.6,81.6 1168.0,81.6" fill="none" stroke="#2589bd" stroke-width="3" stroke-linejoin="round" stroke-linecap="round"/><circle cx="70.0" cy="330.0" r="3.5" fill="#2589bd"/><circle cx="94.4" cy="274.8" r="3.5" fill="#2589bd"/><circle cx="118.8" cy="67.8" r="3.5" fill="#2589bd"/><circle cx="143.2" cy="67.8" r="3.5" fill="#2589bd"/><circle cx="167.6" cy="54.0" r="3.5" fill="#2589bd"/><circle cx="192.0" cy="54.0" r="3.5" fill="#2589bd"/><circle cx="216.4" cy="54.0" r="3.5" fill="#2589bd"/><circle cx="240.8" cy="54.0" r="3.5" fill="#2589bd"/><circle cx="265.2" cy="67.8" r="3.5" fill="#2589bd"/><circle cx="289.6" cy="54.0" r="3.5" fill="#2589bd"/><circle cx="314.0" cy="54.0" r="3.5" fill="#2589bd"/><circle cx="338.4" cy="54.0" r="3.5" fill="#2589bd"/><circle cx="362.8" cy="54.0" r="3.5" fill="#2589bd"/><circle cx="387.2" cy="67.8" r="3.5" fill="#2589bd"/><circle cx="411.6" cy="54.0" r="3.5" fill="#2589bd"/><circle cx="436.0" cy="54.0" r="3.5" fill="#2589bd"/><circle cx="460.4" cy="54.0" r="3.5" fill="#2589bd"/><circle cx="484.8" cy="54.0" r="3.5" fill="#2589bd"/><circle cx="509.2" cy="54.0" r="3.5" fill="#2589bd"/><circle cx="533.6" cy="81.6" r="3.5" fill="#2589bd"/><circle cx="558.0" cy="81.6" r="3.5" fill="#2589bd"/><circle cx="582.4" cy="81.6" r="3.5" fill="#2589bd"/><circle cx="606.8" cy="81.6" r="3.5" fill="#2589bd"/><circle cx="631.2" cy="81.6" r="3.5" fill="#2589bd"/><circle cx="655.6" cy="81.6" r="3.5" fill="#2589bd"/><circle cx="680.0" cy="81.6" r="3.5" fill="#2589bd"/><circle cx="704.4" cy="81.6" r="3.5" fill="#2589bd"/><circle cx="728.8" cy="81.6" r="3.5" fill="#2589bd"/><circle cx="753.2" cy="81.6" r="3.5" fill="#2589bd"/><circle cx="777.6" cy="81.6" r="3.5" fill="#2589bd"/><circle cx="802.0" cy="81.6" r="3.5" fill="#2589bd"/><circle cx="826.4" cy="81.6" r="3.5" fill="#2589bd"/><circle cx="850.8" cy="81.6" r="3.5" fill="#2589bd"/><circle cx="875.2" cy="81.6" r="3.5" fill="#2589bd"/><circle cx="899.6" cy="81.6" r="3.5" fill="#2589bd"/><circle cx="924.0" cy="81.6" r="3.5" fill="#2589bd"/><circle cx="948.4" cy="81.6" r="3.5" fill="#2589bd"/><circle cx="972.8" cy="81.6" r="3.5" fill="#2589bd"/><circle cx="997.2" cy="81.6" r="3.5" fill="#2589bd"/><circle cx="1021.6" cy="81.6" r="3.5" fill="#2589bd"/><circle cx="1046.0" cy="81.6" r="3.5" fill="#2589bd"/><circle cx="1070.4" cy="81.6" r="3.5" fill="#2589bd"/><circle cx="1094.8" cy="81.6" r="3.5" fill="#2589bd"/><circle cx="1119.2" cy="81.6" r="3.5" fill="#2589bd"/><circle cx="1143.6" cy="81.6" r="3.5" fill="#2589bd"/><circle cx="1168.0" cy="81.6" r="3.5" fill="#2589bd"/><text x="70" y="358" text-anchor="middle" class="axis">base 52971b0</text><text x="216.4" y="358" text-anchor="middle" class="axis">base 9d57f8e</text><text x="387.2" y="358" text-anchor="middle" class="axis">base 6055093</text><text x="533.6" y="358" text-anchor="middle" class="axis">base 4782977</text><text x="704.4" y="358" text-anchor="middle" class="axis">PR #401</text><text x="850.8000000000001" y="358" text-anchor="middle" class="axis">PR #410</text><text x="1021.6" y="358" text-anchor="middle" class="axis">PR #418</text><text x="1168" y="358" text-anchor="middle" class="axis">PR #433</text><line x1="70" y1="396" x2="96" y2="396" stroke="#ff6b35" stroke-width="4"/><text x="106" y="401" class="legend">Analytical database capability</text><line x1="619" y1="396" x2="645" y2="396" stroke="#7c5cff" stroke-width="4"/><text x="655" y="401" class="legend">Rust engineering quality</text><line x1="70" y1="424" x2="96" y2="424" stroke="#00a7a5" stroke-width="4"/><text x="106" y="429" class="legend">ClickHouse sustained parity</text><line x1="619" y1="424" x2="645" y2="424" stroke="#e6a700" stroke-width="4"/><text x="655" y="429" class="legend">Benchmark integrity and anti-gaming</text><line x1="70" y1="452" x2="96" y2="452" stroke="#d94f8a" stroke-width="4"/><text x="106" y="457" class="legend">ClickHouse feature comprehensiveness</text><line x1="619" y1="452" x2="645" y2="452" stroke="#2589bd" stroke-width="4"/><text x="655" y="457" class="legend">Evaluation progress accounting</text>
</svg>
