<svg xmlns="http://www.w3.org/2000/svg" width="1200" height="504" viewBox="0 0 1200 504" role="img" aria-labelledby="title desc">
<title id="title">Burner evaluation progress</title><desc id="desc">Time series of evaluation scores recorded at each Burner merge.</desc>
<style>text{font-family:ui-sans-serif,system-ui,-apple-system,BlinkMacSystemFont,"Segoe UI",sans-serif}.title{font-size:22px;font-weight:700;fill:#20242a}.axis{font-size:12px;fill:#59636e}.legend{font-size:13px;fill:#2f3740}.grid{stroke:#d8dee5;stroke-width:1}.plot{fill:#fff;stroke:#b7c0ca}</style>
<rect width="100%" height="100%" fill="#f8fafc" rx="14"/><text x="70" y="32" class="title">Burner evaluation progress</text>
<rect x="70" y="54" width="1098" height="276" class="plot"/><line x1="70" y1="330" x2="1168" y2="330" class="grid"/><text x="58" y="335" text-anchor="end" class="axis">0</text><line x1="70" y1="261" x2="1168" y2="261" class="grid"/><text x="58" y="266" text-anchor="end" class="axis">25</text><line x1="70" y1="192" x2="1168" y2="192" class="grid"/><text x="58" y="197" text-anchor="end" class="axis">50</text><line x1="70" y1="123" x2="1168" y2="123" class="grid"/><text x="58" y="128" text-anchor="end" class="axis">75</text><line x1="70" y1="54" x2="1168" y2="54" class="grid"/><text x="58" y="59" text-anchor="end" class="axis">100</text><polyline points="70.0,330.0 102.3,288.6 134.6,274.8 166.9,274.8 199.2,261.0 231.5,261.0 263.8,261.0 296.1,261.0 328.4,247.2 360.6,247.2 392.9,233.4 425.2,219.6 457.5,219.6 489.8,233.4 522.1,219.6 554.4,205.8 586.7,205.8 619.0,205.8 651.3,205.8 683.6,205.8 715.9,192.0 748.2,150.6 780.5,178.2 812.8,164.4 845.1,164.4 877.4,164.4 909.6,164.4 941.9,164.4 974.2,164.4 1006.5,164.4 1038.8,164.4 1071.1,164.4 1103.4,150.6 1135.7,150.6 1168.0,150.6" fill="none" stroke="#ff6b35" stroke-width="3" stroke-linejoin="round" stroke-linecap="round"/><circle cx="70.0" cy="330.0" r="3.5" fill="#ff6b35"/><circle cx="102.3" cy="288.6" r="3.5" fill="#ff6b35"/><circle cx="134.6" cy="274.8" r="3.5" fill="#ff6b35"/><circle cx="166.9" cy="274.8" r="3.5" fill="#ff6b35"/><circle cx="199.2" cy="261.0" r="3.5" fill="#ff6b35"/><circle cx="231.5" cy="261.0" r="3.5" fill="#ff6b35"/><circle cx="263.8" cy="261.0" r="3.5" fill="#ff6b35"/><circle cx="296.1" cy="261.0" r="3.5" fill="#ff6b35"/><circle cx="328.4" cy="247.2" r="3.5" fill="#ff6b35"/><circle cx="360.6" cy="247.2" r="3.5" fill="#ff6b35"/><circle cx="392.9" cy="233.4" r="3.5" fill="#ff6b35"/><circle cx="425.2" cy="219.6" r="3.5" fill="#ff6b35"/><circle cx="457.5" cy="219.6" r="3.5" fill="#ff6b35"/><circle cx="489.8" cy="233.4" r="3.5" fill="#ff6b35"/><circle cx="522.1" cy="219.6" r="3.5" fill="#ff6b35"/><circle cx="554.4" cy="205.8" r="3.5" fill="#ff6b35"/><circle cx="586.7" cy="205.8" r="3.5" fill="#ff6b35"/><circle cx="619.0" cy="205.8" r="3.5" fill="#ff6b35"/><circle cx="651.3" cy="205.8" r="3.5" fill="#ff6b35"/><circle cx="683.6" cy="205.8" r="3.5" fill="#ff6b35"/><circle cx="715.9" cy="192.0" r="3.5" fill="#ff6b35"/><circle cx="748.2" cy="150.6" r="3.5" fill="#ff6b35"/><circle cx="780.5" cy="178.2" r="3.5" fill="#ff6b35"/><circle cx="812.8" cy="164.4" r="3.5" fill="#ff6b35"/><circle cx="845.1" cy="164.4" r="3.5" fill="#ff6b35"/><circle cx="877.4" cy="164.4" r="3.5" fill="#ff6b35"/><circle cx="909.6" cy="164.4" r="3.5" fill="#ff6b35"/><circle cx="941.9" cy="164.4" r="3.5" fill="#ff6b35"/><circle cx="974.2" cy="164.4" r="3.5" fill="#ff6b35"/><circle cx="1006.5" cy="164.4" r="3.5" fill="#ff6b35"/><circle cx="1038.8" cy="164.4" r="3.5" fill="#ff6b35"/><circle cx="1071.1" cy="164.4" r="3.5" fill="#ff6b35"/><circle cx="1103.4" cy="150.6" r="3.5" fill="#ff6b35"/><circle cx="1135.7" cy="150.6" r="3.5" fill="#ff6b35"/><circle cx="1168.0" cy="150.6" r="3.5" fill="#ff6b35"/><polyline points="70.0,261.0 102.3,136.8 134.6,95.4 166.9,123.0 199.2,95.4 231.5,81.6 263.8,95.4 296.1,81.6 328.4,95.4 360.6,95.4 392.9,81.6 425.2,81.6 457.5,81.6 489.8,81.6 522.1,81.6 554.4,81.6 586.7,81.6 619.0,81.6 651.3,81.6 683.6,95.4 715.9,81.6 748.2,81.6 780.5,95.4 812.8,95.4 845.1,95.4 877.4,95.4 909.6,95.4 941.9,95.4 974.2,95.4 1006.5,95.4 1038.8,95.4 1071.1,81.6 1103.4,81.6 1135.7,81.6 1168.0,81.6" fill="none" stroke="#7c5cff" stroke-width="3" stroke-linejoin="round" stroke-linecap="round"/><circle cx="70.0" cy="261.0" r="3.5" fill="#7c5cff"/><circle cx="102.3" cy="136.8" r="3.5" fill="#7c5cff"/><circle cx="134.6" cy="95.4" r="3.5" fill="#7c5cff"/><circle cx="166.9" cy="123.0" r="3.5" fill="#7c5cff"/><circle cx="199.2" cy="95.4" r="3.5" fill="#7c5cff"/><circle cx="231.5" cy="81.6" r="3.5" fill="#7c5cff"/><circle cx="263.8" cy="95.4" r="3.5" fill="#7c5cff"/><circle cx="296.1" cy="81.6" r="3.5" fill="#7c5cff"/><circle cx="328.4" cy="95.4" r="3.5" fill="#7c5cff"/><circle cx="360.6" cy="95.4" r="3.5" fill="#7c5cff"/><circle cx="392.9" cy="81.6" r="3.5" fill="#7c5cff"/><circle cx="425.2" cy="81.6" r="3.5" fill="#7c5cff"/><circle cx="457.5" cy="81.6" r="3.5" fill="#7c5cff"/><circle cx="489.8" cy="81.6" r="3.5" fill="#7c5cff"/><circle cx="522.1" cy="81.6" r="3.5" fill="#7c5cff"/><circle cx="554.4" cy="81.6" r="3.5" fill="#7c5cff"/><circle cx="586.7" cy="81.6" r="3.5" fill="#7c5cff"/><circle cx="619.0" cy="81.6" r="3.5" fill="#7c5cff"/><circle cx="651.3" cy="81.6" r="3.5" fill="#7c5cff"/><circle cx="683.6" cy="95.4" r="3.5" fill="#7c5cff"/><circle cx="715.9" cy="81.6" r="3.5" fill="#7c5cff"/><circle cx="748.2" cy="81.6" r="3.5" fill="#7c5cff"/><circle cx="780.5" cy="95.4" r="3.5" fill="#7c5cff"/><circle cx="812.8" cy="95.4" r="3.5" fill="#7c5cff"/><circle cx="845.1" cy="95.4" r="3.5" fill="#7c5cff"/><circle cx="877.4" cy="95.4" r="3.5" fill="#7c5cff"/><circle cx="909.6" cy="95.4" r="3.5" fill="#7c5cff"/><circle cx="941.9" cy="95.4" r="3.5" fill="#7c5cff"/><circle cx="974.2" cy="95.4" r="3.5" fill="#7c5cff"/><circle cx="1006.5" cy="95.4" r="3.5" fill="#7c5cff"/><circle cx="1038.8" cy="95.4" r="3.5" fill="#7c5cff"/><circle cx="1071.1" cy="81.6" r="3.5" fill="#7c5cff"/><circle cx="1103.4" cy="81.6" r="3.5" fill="#7c5cff"/><circle cx="1135.7" cy="81.6" r="3.5" fill="#7c5cff"/><circle cx="1168.0" cy="81.6" r="3.5" fill="#7c5cff"/><polyline points="70.0,330.0 102.3,330.0 134.6,330.0 166.9,330.0 199.2,330.0 231.5,330.0 263.8,330.0 296.1,330.0 328.4,330.0 360.6,330.0 392.9,330.0 425.2,330.0 457.5,330.0 489.8,330.0 522.1,330.0 554.4,330.0 586.7,330.0 619.0,330.0 651.3,330.0 683.6,330.0 715.9,330.0 748.2,56.8 780.5,56.8 812.8,56.8 845.1,56.8 877.4,56.8 909.6,56.8 941.9,56.8 974.2,56.8 1006.5,54.0 1038.8,54.0 1071.1,54.0 1103.4,54.0 1135.7,54.0 1168.0,54.0" fill="none" stroke="#00a7a5" stroke-width="3" stroke-linejoin="round" stroke-linecap="round"/><circle cx="70.0" cy="330.0" r="3.5" fill="#00a7a5"/><circle cx="102.3" cy="330.0" r="3.5" fill="#00a7a5"/><circle cx="134.6" cy="330.0" r="3.5" fill="#00a7a5"/><circle cx="166.9" cy="330.0" r="3.5" fill="#00a7a5"/><circle cx="199.2" cy="330.0" r="3.5" fill="#00a7a5"/><circle cx="231.5" cy="330.0" r="3.5" fill="#00a7a5"/><circle cx="263.8" cy="330.0" r="3.5" fill="#00a7a5"/><circle cx="296.1" cy="330.0" r="3.5" fill="#00a7a5"/><circle cx="328.4" cy="330.0" r="3.5" fill="#00a7a5"/><circle cx="360.6" cy="330.0" r="3.5" fill="#00a7a5"/><circle cx="392.9" cy="330.0" r="3.5" fill="#00a7a5"/><circle cx="425.2" cy="330.0" r="3.5" fill="#00a7a5"/><circle cx="457.5" cy="330.0" r="3.5" fill="#00a7a5"/><circle cx="489.8" cy="330.0" r="3.5" fill="#00a7a5"/><circle cx="522.1" cy="330.0" r="3.5" fill="#00a7a5"/><circle cx="554.4" cy="330.0" r="3.5" fill="#00a7a5"/><circle cx="586.7" cy="330.0" r="3.5" fill="#00a7a5"/><circle cx="619.0" cy="330.0" r="3.5" fill="#00a7a5"/><circle cx="651.3" cy="330.0" r="3.5" fill="#00a7a5"/><circle cx="683.6" cy="330.0" r="3.5" fill="#00a7a5"/><circle cx="715.9" cy="330.0" r="3.5" fill="#00a7a5"/><circle cx="748.2" cy="56.8" r="3.5" fill="#00a7a5"/><circle cx="780.5" cy="56.8" r="3.5" fill="#00a7a5"/><circle cx="812.8" cy="56.8" r="3.5" fill="#00a7a5"/><circle cx="845.1" cy="56.8" r="3.5" fill="#00a7a5"/><circle cx="877.4" cy="56.8" r="3.5" fill="#00a7a5"/><circle cx="909.6" cy="56.8" r="3.5" fill="#00a7a5"/><circle cx="941.9" cy="56.8" r="3.5" fill="#00a7a5"/><circle cx="974.2" cy="56.8" r="3.5" fill="#00a7a5"/><circle cx="1006.5" cy="54.0" r="3.5" fill="#00a7a5"/><circle cx="1038.8" cy="54.0" r="3.5" fill="#00a7a5"/><circle cx="1071.1" cy="54.0" r="3.5" fill="#00a7a5"/><circle cx="1103.4" cy="54.0" r="3.5" fill="#00a7a5"/><circle cx="1135.7" cy="54.0" r="3.5" fill="#00a7a5"/><circle cx="1168.0" cy="54.0" r="3.5" fill="#00a7a5"/><polyline points="70.0,95.4 102.3,81.6 134.6,81.6 166.9,95.4 199.2,81.6 231.5,81.6 263.8,95.4 296.1,95.4 328.4,95.4 360.6,95.4 392.9,81.6 425.2,81.6 457.5,81.6 489.8,95.4 522.1,95.4 554.4,95.4 586.7,95.4 619.0,81.6 651.3,81.6 683.6,95.4 715.9,95.4 748.2,95.4 780.5,95.4 812.8,95.4 845.1,95.4 877.4,95.4 909.6,95.4 941.9,95.4 974.2,95.4 1006.5,95.4 1038.8,95.4 1071.1,95.4 1103.4,95.4 1135.7,95.4 1168.0,95.4" fill="none" stroke="#e6a700" stroke-width="3" stroke-linejoin="round" stroke-linecap="round"/><circle cx="70.0" cy="95.4" r="3.5" fill="#e6a700"/><circle cx="102.3" cy="81.6" r="3.5" fill="#e6a700"/><circle cx="134.6" cy="81.6" r="3.5" fill="#e6a700"/><circle cx="166.9" cy="95.4" r="3.5" fill="#e6a700"/><circle cx="199.2" cy="81.6" r="3.5" fill="#e6a700"/><circle cx="231.5" cy="81.6" r="3.5" fill="#e6a700"/><circle cx="263.8" cy="95.4" r="3.5" fill="#e6a700"/><circle cx="296.1" cy="95.4" r="3.5" fill="#e6a700"/><circle cx="328.4" cy="95.4" r="3.5" fill="#e6a700"/><circle cx="360.6" cy="95.4" r="3.5" fill="#e6a700"/><circle cx="392.9" cy="81.6" r="3.5" fill="#e6a700"/><circle cx="425.2" cy="81.6" r="3.5" fill="#e6a700"/><circle cx="457.5" cy="81.6" r="3.5" fill="#e6a700"/><circle cx="489.8" cy="95.4" r="3.5" fill="#e6a700"/><circle cx="522.1" cy="95.4" r="3.5" fill="#e6a700"/><circle cx="554.4" cy="95.4" r="3.5" fill="#e6a700"/><circle cx="586.7" cy="95.4" r="3.5" fill="#e6a700"/><circle cx="619.0" cy="81.6" r="3.5" fill="#e6a700"/><circle cx="651.3" cy="81.6" r="3.5" fill="#e6a700"/><circle cx="683.6" cy="95.4" r="3.5" fill="#e6a700"/><circle cx="715.9" cy="95.4" r="3.5" fill="#e6a700"/><circle cx="748.2" cy="95.4" r="3.5" fill="#e6a700"/><circle cx="780.5" cy="95.4" r="3.5" fill="#e6a700"/><circle cx="812.8" cy="95.4" r="3.5" fill="#e6a700"/><circle cx="845.1" cy="95.4" r="3.5" fill="#e6a700"/><circle cx="877.4" cy="95.4" r="3.5" fill="#e6a700"/><circle cx="909.6" cy="95.4" r="3.5" fill="#e6a700"/><circle cx="941.9" cy="95.4" r="3.5" fill="#e6a700"/><circle cx="974.2" cy="95.4" r="3.5" fill="#e6a700"/><circle cx="1006.5" cy="95.4" r="3.5" fill="#e6a700"/><circle cx="1038.8" cy="95.4" r="3.5" fill="#e6a700"/><circle cx="1071.1" cy="95.4" r="3.5" fill="#e6a700"/><circle cx="1103.4" cy="95.4" r="3.5" fill="#e6a700"/><circle cx="1135.7" cy="95.4" r="3.5" fill="#e6a700"/><circle cx="1168.0" cy="95.4" r="3.5" fill="#e6a700"/><polyline points="70.0,330.0 102.3,302.4 134.6,288.6 166.9,288.6 199.2,288.6 231.5,274.8 263.8,274.8 296.1,274.8 328.4,274.8 360.6,274.8 392.9,274.8 425.2,261.0 457.5,261.0 489.8,261.0 522.1,261.0 554.4,261.0 586.7,288.6 619.0,261.0 651.3,261.0 683.6,261.0 715.9,247.2 748.2,219.6 780.5,261.0 812.8,261.0 845.1,261.0 877.4,261.0 909.6,261.0 941.9,261.0 974.2,261.0 1006.5,261.0 1038.8,261.0 1071.1,261.0 1103.4,247.2 1135.7,247.2 1168.0,247.2" fill="none" stroke="#d94f8a" stroke-width="3" stroke-linejoin="round" stroke-linecap="round"/><circle cx="70.0" cy="330.0" r="3.5" fill="#d94f8a"/><circle cx="102.3" cy="302.4" r="3.5" fill="#d94f8a"/><circle cx="134.6" cy="288.6" r="3.5" fill="#d94f8a"/><circle cx="166.9" cy="288.6" r="3.5" fill="#d94f8a"/><circle cx="199.2" cy="288.6" r="3.5" fill="#d94f8a"/><circle cx="231.5" cy="274.8" r="3.5" fill="#d94f8a"/><circle cx="263.8" cy="274.8" r="3.5" fill="#d94f8a"/><circle cx="296.1" cy="274.8" r="3.5" fill="#d94f8a"/><circle cx="328.4" cy="274.8" r="3.5" fill="#d94f8a"/><circle cx="360.6" cy="274.8" r="3.5" fill="#d94f8a"/><circle cx="392.9" cy="274.8" r="3.5" fill="#d94f8a"/><circle cx="425.2" cy="261.0" r="3.5" fill="#d94f8a"/><circle cx="457.5" cy="261.0" r="3.5" fill="#d94f8a"/><circle cx="489.8" cy="261.0" r="3.5" fill="#d94f8a"/><circle cx="522.1" cy="261.0" r="3.5" fill="#d94f8a"/><circle cx="554.4" cy="261.0" r="3.5" fill="#d94f8a"/><circle cx="586.7" cy="288.6" r="3.5" fill="#d94f8a"/><circle cx="619.0" cy="261.0" r="3.5" fill="#d94f8a"/><circle cx="651.3" cy="261.0" r="3.5" fill="#d94f8a"/><circle cx="683.6" cy="261.0" r="3.5" fill="#d94f8a"/><circle cx="715.9" cy="247.2" r="3.5" fill="#d94f8a"/><circle cx="748.2" cy="219.6" r="3.5" fill="#d94f8a"/><circle cx="780.5" cy="261.0" r="3.5" fill="#d94f8a"/><circle cx="812.8" cy="261.0" r="3.5" fill="#d94f8a"/><circle cx="845.1" cy="261.0" r="3.5" fill="#d94f8a"/><circle cx="877.4" cy="261.0" r="3.5" fill="#d94f8a"/><circle cx="909.6" cy="261.0" r="3.5" fill="#d94f8a"/><circle cx="941.9" cy="261.0" r="3.5" fill="#d94f8a"/><circle cx="974.2" cy="261.0" r="3.5" fill="#d94f8a"/><circle cx="1006.5" cy="261.0" r="3.5" fill="#d94f8a"/><circle cx="1038.8" cy="261.0" r="3.5" fill="#d94f8a"/><circle cx="1071.1" cy="261.0" r="3.5" fill="#d94f8a"/><circle cx="1103.4" cy="247.2" r="3.5" fill="#d94f8a"/><circle cx="1135.7" cy="247.2" r="3.5" fill="#d94f8a"/><circle cx="1168.0" cy="247.2" r="3.5" fill="#d94f8a"/><polyline points="70.0,330.0 102.3,274.8 134.6,67.8 166.9,67.8 199.2,54.0 231.5,54.0 263.8,54.0 296.1,54.0 328.4,67.8 360.6,54.0 392.9,54.0 425.2,54.0 457.5,54.0 489.8,67.8 522.1,54.0 554.4,54.0 586.7,54.0 619.0,54.0 651.3,54.0 683.6,81.6 715.9,81.6 748.2,81.6 780.5,81.6 812.8,81.6 845.1,81.6 877.4,81.6 909.6,81.6 941.9,81.6 974.2,81.6 1006.5,81.6 1038.8,81.6 1071.1,81.6 1103.4,81.6 1135.7,81.6 1168.0,81.6" fill="none" stroke="#2589bd" stroke-width="3" stroke-linejoin="round" stroke-linecap="round"/><circle cx="70.0" cy="330.0" r="3.5" fill="#2589bd"/><circle cx="102.3" cy="274.8" r="3.5" fill="#2589bd"/><circle cx="134.6" cy="67.8" r="3.5" fill="#2589bd"/><circle cx="166.9" cy="67.8" r="3.5" fill="#2589bd"/><circle cx="199.2" cy="54.0" r="3.5" fill="#2589bd"/><circle cx="231.5" cy="54.0" r="3.5" fill="#2589bd"/><circle cx="263.8" cy="54.0" r="3.5" fill="#2589bd"/><circle cx="296.1" cy="54.0" r="3.5" fill="#2589bd"/><circle cx="328.4" cy="67.8" r="3.5" fill="#2589bd"/><circle cx="360.6" cy="54.0" r="3.5" fill="#2589bd"/><circle cx="392.9" cy="54.0" r="3.5" fill="#2589bd"/><circle cx="425.2" cy="54.0" r="3.5" fill="#2589bd"/><circle cx="457.5" cy="54.0" r="3.5" fill="#2589bd"/><circle cx="489.8" cy="67.8" r="3.5" fill="#2589bd"/><circle cx="522.1" cy="54.0" r="3.5" fill="#2589bd"/><circle cx="554.4" cy="54.0" r="3.5" fill="#2589bd"/><circle cx="586.7" cy="54.0" r="3.5" fill="#2589bd"/><circle cx="619.0" cy="54.0" r="3.5" fill="#2589bd"/><circle cx="651.3" cy="54.0" r="3.5" fill="#2589bd"/><circle cx="683.6" cy="81.6" r="3.5" fill="#2589bd"/><circle cx="715.9" cy="81.6" r="3.5" fill="#2589bd"/><circle cx="748.2" cy="81.6" r="3.5" fill="#2589bd"/><circle cx="780.5" cy="81.6" r="3.5" fill="#2589bd"/><circle cx="812.8" cy="81.6" r="3.5" fill="#2589bd"/><circle cx="845.1" cy="81.6" r="3.5" fill="#2589bd"/><circle cx="877.4" cy="81.6" r="3.5" fill="#2589bd"/><circle cx="909.6" cy="81.6" r="3.5" fill="#2589bd"/><circle cx="941.9" cy="81.6" r="3.5" fill="#2589bd"/><circle cx="974.2" cy="81.6" r="3.5" fill="#2589bd"/><circle cx="1006.5" cy="81.6" r="3.5" fill="#2589bd"/><circle cx="1038.8" cy="81.6" r="3.5" fill="#2589bd"/><circle cx="1071.1" cy="81.6" r="3.5" fill="#2589bd"/><circle cx="1103.4" cy="81.6" r="3.5" fill="#2589bd"/><circle cx="1135.7" cy="81.6" r="3.5" fill="#2589bd"/><circle cx="1168.0" cy="81.6" r="3.5" fill="#2589bd"/><text x="70" y="358" text-anchor="middle" class="axis">base 52971b0</text><text x="231.47058823529412" y="358" text-anchor="middle" class="axis">PR #352</text><text x="392.94117647058823" y="358" text-anchor="middle" class="axis">PR #367</text><text x="554.4117647058823" y="358" text-anchor="middle" class="axis">PR #383</text><text x="683.5882352941177" y="358" text-anchor="middle" class="axis">base 4782977</text><text x="845.0588235294118" y="358" text-anchor="middle" class="axis">PR #399</text><text x="1006.5294117647059" y="358" text-anchor="middle" class="axis">base 2dceb85</text><text x="1168" y="358" text-anchor="middle" class="axis">PR #413</text><line x1="70" y1="396" x2="96" y2="396" stroke="#ff6b35" stroke-width="4"/><text x="106" y="401" class="legend">Analytical database capability</text><line x1="619" y1="396" x2="645" y2="396" stroke="#7c5cff" stroke-width="4"/><text x="655" y="401" class="legend">Rust engineering quality</text><line x1="70" y1="424" x2="96" y2="424" stroke="#00a7a5" stroke-width="4"/><text x="106" y="429" class="legend">ClickHouse sustained parity</text><line x1="619" y1="424" x2="645" y2="424" stroke="#e6a700" stroke-width="4"/><text x="655" y="429" class="legend">Benchmark integrity and anti-gaming</text><line x1="70" y1="452" x2="96" y2="452" stroke="#d94f8a" stroke-width="4"/><text x="106" y="457" class="legend">ClickHouse feature comprehensiveness</text><line x1="619" y1="452" x2="645" y2="452" stroke="#2589bd" stroke-width="4"/><text x="655" y="457" class="legend">Evaluation progress accounting</text>
</svg>
