<svg xmlns="http://www.w3.org/2000/svg" width="1200" height="504" viewBox="0 0 1200 504" role="img" aria-labelledby="title desc">
<title id="title">Burner evaluation progress</title><desc id="desc">Time series of evaluation scores recorded at each Burner merge.</desc>
<style>text{font-family:ui-sans-serif,system-ui,-apple-system,BlinkMacSystemFont,"Segoe UI",sans-serif}.title{font-size:22px;font-weight:700;fill:#20242a}.axis{font-size:12px;fill:#59636e}.legend{font-size:13px;fill:#2f3740}.grid{stroke:#d8dee5;stroke-width:1}.plot{fill:#fff;stroke:#b7c0ca}</style>
<rect width="100%" height="100%" fill="#f8fafc" rx="14"/><text x="70" y="32" class="title">Burner evaluation progress</text>
<rect x="70" y="54" width="1098" height="276" class="plot"/><line x1="70" y1="330" x2="1168" y2="330" class="grid"/><text x="58" y="335" text-anchor="end" class="axis">0</text><line x1="70" y1="261" x2="1168" y2="261" class="grid"/><text x="58" y="266" text-anchor="end" class="axis">25</text><line x1="70" y1="192" x2="1168" y2="192" class="grid"/><text x="58" y="197" text-anchor="end" class="axis">50</text><line x1="70" y1="123" x2="1168" y2="123" class="grid"/><text x="58" y="128" text-anchor="end" class="axis">75</text><line x1="70" y1="54" x2="1168" y2="54" class="grid"/><text x="58" y="59" text-anchor="end" class="axis">100</text><polyline points="70.0,330.0 88.0,288.6 106.0,274.8 124.0,274.8 142.0,261.0 160.0,261.0 178.0,261.0 196.0,261.0 214.0,247.2 232.0,247.2 250.0,233.4 268.0,219.6 286.0,219.6 304.0,233.4 322.0,219.6 340.0,205.8 358.0,205.8 376.0,205.8 394.0,205.8 412.0,205.8 430.0,192.0 448.0,150.6 466.0,178.2 484.0,164.4 502.0,164.4 520.0,164.4 538.0,164.4 556.0,164.4 574.0,164.4 592.0,164.4 610.0,164.4 628.0,164.4 646.0,150.6 664.0,150.6 682.0,150.6 700.0,136.8 718.0,136.8 736.0,136.8 754.0,136.8 772.0,136.8 790.0,123.0 808.0,123.0 826.0,123.0 844.0,123.0 862.0,123.0 880.0,123.0 898.0,123.0 916.0,109.2 934.0,109.2 952.0,109.2 970.0,109.2 988.0,109.2 1006.0,109.2 1024.0,95.4 1042.0,95.4 1060.0,95.4 1078.0,95.4 1096.0,95.4 1114.0,81.6 1132.0,81.6 1150.0,81.6 1168.0,81.6" fill="none" stroke="#ff6b35" stroke-width="3" stroke-linejoin="round" stroke-linecap="round"/><polyline points="70.0,261.0 88.0,136.8 106.0,95.4 124.0,123.0 142.0,95.4 160.0,81.6 178.0,95.4 196.0,81.6 214.0,95.4 232.0,95.4 250.0,81.6 268.0,81.6 286.0,81.6 304.0,81.6 322.0,81.6 340.0,81.6 358.0,81.6 376.0,81.6 394.0,81.6 412.0,95.4 430.0,81.6 448.0,81.6 466.0,95.4 484.0,95.4 502.0,95.4 520.0,95.4 538.0,95.4 556.0,95.4 574.0,95.4 592.0,95.4 610.0,95.4 628.0,81.6 646.0,81.6 664.0,81.6 682.0,81.6 700.0,81.6 718.0,81.6 736.0,81.6 754.0,81.6 772.0,81.6 790.0,81.6 808.0,81.6 826.0,81.6 844.0,81.6 862.0,81.6 880.0,81.6 898.0,81.6 916.0,81.6 934.0,81.6 952.0,81.6 970.0,81.6 988.0,81.6 1006.0,67.8 1024.0,67.8 1042.0,67.8 1060.0,67.8 1078.0,67.8 1096.0,67.8 1114.0,67.8 1132.0,67.8 1150.0,67.8 1168.0,67.8" fill="none" stroke="#7c5cff" stroke-width="3" stroke-linejoin="round" stroke-linecap="round"/><polyline points="70.0,330.0 88.0,330.0 106.0,330.0 124.0,330.0 142.0,330.0 160.0,330.0 178.0,330.0 196.0,330.0 214.0,330.0 232.0,330.0 250.0,330.0 268.0,330.0 286.0,330.0 304.0,330.0 322.0,330.0 340.0,330.0 358.0,330.0 376.0,330.0 394.0,330.0 412.0,330.0 430.0,330.0 448.0,56.8 466.0,56.8 484.0,56.8 502.0,56.8 520.0,56.8 538.0,56.8 556.0,56.8 574.0,56.8 592.0,54.0 610.0,54.0 628.0,54.0 646.0,54.0 664.0,54.0 682.0,54.0 700.0,54.0 718.0,54.0 736.0,54.0 754.0,54.0 772.0,54.0 790.0,54.0 808.0,54.0 826.0,54.0 844.0,54.0 862.0,54.0 880.0,54.0 898.0,54.0 916.0,54.0 934.0,54.0 952.0,54.0 970.0,54.0 988.0,54.0 1006.0,54.0 1024.0,54.0 1042.0,54.0 1060.0,54.0 1078.0,54.0 1096.0,54.0 1114.0,54.0 1132.0,54.0 1150.0,54.0 1168.0,54.0" fill="none" stroke="#00a7a5" stroke-width="3" stroke-linejoin="round" stroke-linecap="round"/><polyline points="70.0,95.4 88.0,81.6 106.0,81.6 124.0,95.4 142.0,81.6 160.0,81.6 178.0,95.4 196.0,95.4 214.0,95.4 232.0,95.4 250.0,81.6 268.0,81.6 286.0,81.6 304.0,95.4 322.0,95.4 340.0,95.4 358.0,95.4 376.0,81.6 394.0,81.6 412.0,95.4 430.0,95.4 448.0,95.4 466.0,95.4 484.0,95.4 502.0,95.4 520.0,95.4 538.0,95.4 556.0,95.4 574.0,95.4 592.0,95.4 610.0,95.4 628.0,95.4 646.0,95.4 664.0,95.4 682.0,95.4 700.0,95.4 718.0,95.4 736.0,95.4 754.0,95.4 772.0,95.4 790.0,95.4 808.0,95.4 826.0,95.4 844.0,95.4 862.0,95.4 880.0,95.4 898.0,95.4 916.0,95.4 934.0,95.4 952.0,95.4 970.0,95.4 988.0,95.4 1006.0,95.4 1024.0,95.4 1042.0,95.4 1060.0,95.4 1078.0,95.4 1096.0,95.4 1114.0,95.4 1132.0,95.4 1150.0,95.4 1168.0,95.4" fill="none" stroke="#e6a700" stroke-width="3" stroke-linejoin="round" stroke-linecap="round"/><polyline points="70.0,330.0 88.0,302.4 106.0,288.6 124.0,288.6 142.0,288.6 160.0,274.8 178.0,274.8 196.0,274.8 214.0,274.8 232.0,274.8 250.0,274.8 268.0,261.0 286.0,261.0 304.0,261.0 322.0,261.0 340.0,261.0 358.0,288.6 376.0,261.0 394.0,261.0 412.0,261.0 430.0,247.2 448.0,219.6 466.0,261.0 484.0,261.0 502.0,261.0 520.0,261.0 538.0,261.0 556.0,261.0 574.0,261.0 592.0,261.0 610.0,261.0 628.0,261.0 646.0,247.2 664.0,247.2 682.0,247.2 700.0,233.4 718.0,233.4 736.0,233.4 754.0,233.4 772.0,233.4 790.0,233.4 808.0,233.4 826.0,233.4 844.0,233.4 862.0,233.4 880.0,233.4 898.0,233.4 916.0,233.4 934.0,274.8 952.0,274.8 970.0,261.0 988.0,261.0 1006.0,261.0 1024.0,261.0 1042.0,261.0 1060.0,261.0 1078.0,247.2 1096.0,247.2 1114.0,247.2 1132.0,247.2 1150.0,233.4 1168.0,233.4" fill="none" stroke="#d94f8a" stroke-width="3" stroke-linejoin="round" stroke-linecap="round"/><polyline points="70.0,330.0 88.0,274.8 106.0,67.8 124.0,67.8 142.0,54.0 160.0,54.0 178.0,54.0 196.0,54.0 214.0,67.8 232.0,54.0 250.0,54.0 268.0,54.0 286.0,54.0 304.0,67.8 322.0,54.0 340.0,54.0 358.0,54.0 376.0,54.0 394.0,54.0 412.0,81.6 430.0,81.6 448.0,81.6 466.0,81.6 484.0,81.6 502.0,81.6 520.0,81.6 538.0,81.6 556.0,81.6 574.0,81.6 592.0,81.6 610.0,81.6 628.0,81.6 646.0,81.6 664.0,81.6 682.0,81.6 700.0,81.6 718.0,81.6 736.0,81.6 754.0,81.6 772.0,81.6 790.0,81.6 808.0,81.6 826.0,81.6 844.0,81.6 862.0,81.6 880.0,81.6 898.0,81.6 916.0,81.6 934.0,81.6 952.0,81.6 970.0,81.6 988.0,81.6 1006.0,81.6 1024.0,81.6 1042.0,81.6 1060.0,81.6 1078.0,81.6 1096.0,81.6 1114.0,81.6 1132.0,81.6 1150.0,81.6 1168.0,81.6" fill="none" stroke="#2589bd" stroke-width="3" stroke-linejoin="round" stroke-linecap="round"/><text x="70" y="358" text-anchor="middle" class="axis">base 52971b0</text><text x="232" y="358" text-anchor="middle" class="axis">PR #363</text><text x="376" y="358" text-anchor="middle" class="axis">PR #387</text><text x="538" y="358" text-anchor="middle" class="axis">PR #401</text><text x="700" y="358" text-anchor="middle" class="axis">PR #414</text><text x="862" y="358" text-anchor="middle" class="axis">PR #430</text><text x="1005.9999999999999" y="358" text-anchor="middle" class="axis">PR #445</text><text x="1168" y="358" text-anchor="middle" class="axis">PR #465</text><line x1="70" y1="396" x2="96" y2="396" stroke="#ff6b35" stroke-width="4"/><text x="106" y="401" class="legend">Analytical database capability</text><line x1="619" y1="396" x2="645" y2="396" stroke="#7c5cff" stroke-width="4"/><text x="655" y="401" class="legend">Rust engineering quality</text><line x1="70" y1="424" x2="96" y2="424" stroke="#00a7a5" stroke-width="4"/><text x="106" y="429" class="legend">ClickHouse sustained parity</text><line x1="619" y1="424" x2="645" y2="424" stroke="#e6a700" stroke-width="4"/><text x="655" y="429" class="legend">Benchmark integrity and anti-gaming</text><line x1="70" y1="452" x2="96" y2="452" stroke="#d94f8a" stroke-width="4"/><text x="106" y="457" class="legend">ClickHouse feature comprehensiveness</text><line x1="619" y1="452" x2="645" y2="452" stroke="#2589bd" stroke-width="4"/><text x="655" y="457" class="legend">Evaluation progress accounting</text>
</svg>
