<svg xmlns="http://www.w3.org/2000/svg" width="1200" height="504" viewBox="0 0 1200 504" role="img" aria-labelledby="title desc">
<title id="title">Burner evaluation progress</title><desc id="desc">Time series of evaluation scores recorded at each Burner merge.</desc>
<style>text{font-family:ui-sans-serif,system-ui,-apple-system,BlinkMacSystemFont,"Segoe UI",sans-serif}.title{font-size:22px;font-weight:700;fill:#20242a}.axis{font-size:12px;fill:#59636e}.legend{font-size:13px;fill:#2f3740}.grid{stroke:#d8dee5;stroke-width:1}.plot{fill:#fff;stroke:#b7c0ca}</style>
<rect width="100%" height="100%" fill="#f8fafc" rx="14"/><text x="70" y="32" class="title">Burner evaluation progress</text>
<rect x="70" y="54" width="1098" height="276" class="plot"/><line x1="70" y1="330" x2="1168" y2="330" class="grid"/><text x="58" y="335" text-anchor="end" class="axis">0</text><line x1="70" y1="261" x2="1168" y2="261" class="grid"/><text x="58" y="266" text-anchor="end" class="axis">25</text><line x1="70" y1="192" x2="1168" y2="192" class="grid"/><text x="58" y="197" text-anchor="end" class="axis">50</text><line x1="70" y1="123" x2="1168" y2="123" class="grid"/><text x="58" y="128" text-anchor="end" class="axis">75</text><line x1="70" y1="54" x2="1168" y2="54" class="grid"/><text x="58" y="59" text-anchor="end" class="axis">100</text><polyline points="70.0,330.0 161.5,288.6 253.0,274.8 344.5,274.8 436.0,261.0 527.5,261.0 619.0,261.0 710.5,261.0 802.0,247.2 893.5,247.2 985.0,233.4 1076.5,219.6 1168.0,219.6" fill="none" stroke="#ff6b35" stroke-width="3" stroke-linejoin="round" stroke-linecap="round"/><circle cx="70.0" cy="330.0" r="3.5" fill="#ff6b35"/><circle cx="161.5" cy="288.6" r="3.5" fill="#ff6b35"/><circle cx="253.0" cy="274.8" r="3.5" fill="#ff6b35"/><circle cx="344.5" cy="274.8" r="3.5" fill="#ff6b35"/><circle cx="436.0" cy="261.0" r="3.5" fill="#ff6b35"/><circle cx="527.5" cy="261.0" r="3.5" fill="#ff6b35"/><circle cx="619.0" cy="261.0" r="3.5" fill="#ff6b35"/><circle cx="710.5" cy="261.0" r="3.5" fill="#ff6b35"/><circle cx="802.0" cy="247.2" r="3.5" fill="#ff6b35"/><circle cx="893.5" cy="247.2" r="3.5" fill="#ff6b35"/><circle cx="985.0" cy="233.4" r="3.5" fill="#ff6b35"/><circle cx="1076.5" cy="219.6" r="3.5" fill="#ff6b35"/><circle cx="1168.0" cy="219.6" r="3.5" fill="#ff6b35"/><polyline points="70.0,261.0 161.5,136.8 253.0,95.4 344.5,123.0 436.0,95.4 527.5,81.6 619.0,95.4 710.5,81.6 802.0,95.4 893.5,95.4 985.0,81.6 1076.5,81.6 1168.0,81.6" fill="none" stroke="#7c5cff" stroke-width="3" stroke-linejoin="round" stroke-linecap="round"/><circle cx="70.0" cy="261.0" r="3.5" fill="#7c5cff"/><circle cx="161.5" cy="136.8" r="3.5" fill="#7c5cff"/><circle cx="253.0" cy="95.4" r="3.5" fill="#7c5cff"/><circle cx="344.5" cy="123.0" r="3.5" fill="#7c5cff"/><circle cx="436.0" cy="95.4" r="3.5" fill="#7c5cff"/><circle cx="527.5" cy="81.6" r="3.5" fill="#7c5cff"/><circle cx="619.0" cy="95.4" r="3.5" fill="#7c5cff"/><circle cx="710.5" cy="81.6" r="3.5" fill="#7c5cff"/><circle cx="802.0" cy="95.4" r="3.5" fill="#7c5cff"/><circle cx="893.5" cy="95.4" r="3.5" fill="#7c5cff"/><circle cx="985.0" cy="81.6" r="3.5" fill="#7c5cff"/><circle cx="1076.5" cy="81.6" r="3.5" fill="#7c5cff"/><circle cx="1168.0" cy="81.6" r="3.5" fill="#7c5cff"/><polyline points="70.0,330.0 161.5,330.0 253.0,330.0 344.5,330.0 436.0,330.0 527.5,330.0 619.0,330.0 710.5,330.0 802.0,330.0 893.5,330.0 985.0,330.0 1076.5,330.0 1168.0,330.0" fill="none" stroke="#00a7a5" stroke-width="3" stroke-linejoin="round" stroke-linecap="round"/><circle cx="70.0" cy="330.0" r="3.5" fill="#00a7a5"/><circle cx="161.5" cy="330.0" r="3.5" fill="#00a7a5"/><circle cx="253.0" cy="330.0" r="3.5" fill="#00a7a5"/><circle cx="344.5" cy="330.0" r="3.5" fill="#00a7a5"/><circle cx="436.0" cy="330.0" r="3.5" fill="#00a7a5"/><circle cx="527.5" cy="330.0" r="3.5" fill="#00a7a5"/><circle cx="619.0" cy="330.0" r="3.5" fill="#00a7a5"/><circle cx="710.5" cy="330.0" r="3.5" fill="#00a7a5"/><circle cx="802.0" cy="330.0" r="3.5" fill="#00a7a5"/><circle cx="893.5" cy="330.0" r="3.5" fill="#00a7a5"/><circle cx="985.0" cy="330.0" r="3.5" fill="#00a7a5"/><circle cx="1076.5" cy="330.0" r="3.5" fill="#00a7a5"/><circle cx="1168.0" cy="330.0" r="3.5" fill="#00a7a5"/><polyline points="70.0,95.4 161.5,81.6 253.0,81.6 344.5,95.4 436.0,81.6 527.5,81.6 619.0,95.4 710.5,95.4 802.0,95.4 893.5,95.4 985.0,81.6 1076.5,81.6 1168.0,81.6" fill="none" stroke="#e6a700" stroke-width="3" stroke-linejoin="round" stroke-linecap="round"/><circle cx="70.0" cy="95.4" r="3.5" fill="#e6a700"/><circle cx="161.5" cy="81.6" r="3.5" fill="#e6a700"/><circle cx="253.0" cy="81.6" r="3.5" fill="#e6a700"/><circle cx="344.5" cy="95.4" r="3.5" fill="#e6a700"/><circle cx="436.0" cy="81.6" r="3.5" fill="#e6a700"/><circle cx="527.5" cy="81.6" r="3.5" fill="#e6a700"/><circle cx="619.0" cy="95.4" r="3.5" fill="#e6a700"/><circle cx="710.5" cy="95.4" r="3.5" fill="#e6a700"/><circle cx="802.0" cy="95.4" r="3.5" fill="#e6a700"/><circle cx="893.5" cy="95.4" r="3.5" fill="#e6a700"/><circle cx="985.0" cy="81.6" r="3.5" fill="#e6a700"/><circle cx="1076.5" cy="81.6" r="3.5" fill="#e6a700"/><circle cx="1168.0" cy="81.6" r="3.5" fill="#e6a700"/><polyline points="70.0,330.0 161.5,302.4 253.0,288.6 344.5,288.6 436.0,288.6 527.5,274.8 619.0,274.8 710.5,274.8 802.0,274.8 893.5,274.8 985.0,274.8 1076.5,261.0 1168.0,261.0" fill="none" stroke="#d94f8a" stroke-width="3" stroke-linejoin="round" stroke-linecap="round"/><circle cx="70.0" cy="330.0" r="3.5" fill="#d94f8a"/><circle cx="161.5" cy="302.4" r="3.5" fill="#d94f8a"/><circle cx="253.0" cy="288.6" r="3.5" fill="#d94f8a"/><circle cx="344.5" cy="288.6" r="3.5" fill="#d94f8a"/><circle cx="436.0" cy="288.6" r="3.5" fill="#d94f8a"/><circle cx="527.5" cy="274.8" r="3.5" fill="#d94f8a"/><circle cx="619.0" cy="274.8" r="3.5" fill="#d94f8a"/><circle cx="710.5" cy="274.8" r="3.5" fill="#d94f8a"/><circle cx="802.0" cy="274.8" r="3.5" fill="#d94f8a"/><circle cx="893.5" cy="274.8" r="3.5" fill="#d94f8a"/><circle cx="985.0" cy="274.8" r="3.5" fill="#d94f8a"/><circle cx="1076.5" cy="261.0" r="3.5" fill="#d94f8a"/><circle cx="1168.0" cy="261.0" r="3.5" fill="#d94f8a"/><polyline points="70.0,330.0 161.5,274.8 253.0,67.8 344.5,67.8 436.0,54.0 527.5,54.0 619.0,54.0 710.5,54.0 802.0,67.8 893.5,54.0 985.0,54.0 1076.5,54.0 1168.0,54.0" fill="none" stroke="#2589bd" stroke-width="3" stroke-linejoin="round" stroke-linecap="round"/><circle cx="70.0" cy="330.0" r="3.5" fill="#2589bd"/><circle cx="161.5" cy="274.8" r="3.5" fill="#2589bd"/><circle cx="253.0" cy="67.8" r="3.5" fill="#2589bd"/><circle cx="344.5" cy="67.8" r="3.5" fill="#2589bd"/><circle cx="436.0" cy="54.0" r="3.5" fill="#2589bd"/><circle cx="527.5" cy="54.0" r="3.5" fill="#2589bd"/><circle cx="619.0" cy="54.0" r="3.5" fill="#2589bd"/><circle cx="710.5" cy="54.0" r="3.5" fill="#2589bd"/><circle cx="802.0" cy="67.8" r="3.5" fill="#2589bd"/><circle cx="893.5" cy="54.0" r="3.5" fill="#2589bd"/><circle cx="985.0" cy="54.0" r="3.5" fill="#2589bd"/><circle cx="1076.5" cy="54.0" r="3.5" fill="#2589bd"/><circle cx="1168.0" cy="54.0" r="3.5" fill="#2589bd"/><text x="70" y="358" text-anchor="middle" class="axis">base 52971b0</text><text x="253" y="358" text-anchor="middle" class="axis">PR #345</text><text x="344.5" y="358" text-anchor="middle" class="axis">base 344051c</text><text x="527.5" y="358" text-anchor="middle" class="axis">PR #352</text><text x="710.5" y="358" text-anchor="middle" class="axis">PR #358</text><text x="893.5" y="358" text-anchor="middle" class="axis">PR #363</text><text x="985" y="358" text-anchor="middle" class="axis">PR #367</text><text x="1168" y="358" text-anchor="middle" class="axis">PR #373</text><line x1="70" y1="396" x2="96" y2="396" stroke="#ff6b35" stroke-width="4"/><text x="106" y="401" class="legend">Analytical database capability</text><line x1="619" y1="396" x2="645" y2="396" stroke="#7c5cff" stroke-width="4"/><text x="655" y="401" class="legend">Rust engineering quality</text><line x1="70" y1="424" x2="96" y2="424" stroke="#00a7a5" stroke-width="4"/><text x="106" y="429" class="legend">ClickHouse sustained parity</text><line x1="619" y1="424" x2="645" y2="424" stroke="#e6a700" stroke-width="4"/><text x="655" y="429" class="legend">Benchmark integrity and anti-gaming</text><line x1="70" y1="452" x2="96" y2="452" stroke="#d94f8a" stroke-width="4"/><text x="106" y="457" class="legend">ClickHouse feature comprehensiveness</text><line x1="619" y1="452" x2="645" y2="452" stroke="#2589bd" stroke-width="4"/><text x="655" y="457" class="legend">Evaluation progress accounting</text>
</svg>
