<svg xmlns="http://www.w3.org/2000/svg" width="1200" height="504" viewBox="0 0 1200 504" role="img" aria-labelledby="title desc">
<title id="title">Burner evaluation progress</title><desc id="desc">Time series of evaluation scores recorded at each Burner merge.</desc>
<style>text{font-family:ui-sans-serif,system-ui,-apple-system,BlinkMacSystemFont,"Segoe UI",sans-serif}.title{font-size:22px;font-weight:700;fill:#20242a}.axis{font-size:12px;fill:#59636e}.legend{font-size:13px;fill:#2f3740}.grid{stroke:#d8dee5;stroke-width:1}.plot{fill:#fff;stroke:#b7c0ca}</style>
<rect width="100%" height="100%" fill="#f8fafc" rx="14"/><text x="70" y="32" class="title">Burner evaluation progress</text>
<rect x="70" y="54" width="1098" height="276" class="plot"/><line x1="70" y1="330" x2="1168" y2="330" class="grid"/><text x="58" y="335" text-anchor="end" class="axis">0</text><line x1="70" y1="261" x2="1168" y2="261" class="grid"/><text x="58" y="266" text-anchor="end" class="axis">25</text><line x1="70" y1="192" x2="1168" y2="192" class="grid"/><text x="58" y="197" text-anchor="end" class="axis">50</text><line x1="70" y1="123" x2="1168" y2="123" class="grid"/><text x="58" y="128" text-anchor="end" class="axis">75</text><line x1="70" y1="54" x2="1168" y2="54" class="grid"/><text x="58" y="59" text-anchor="end" class="axis">100</text><polyline points="70.0,330.0 76.3,288.6 82.7,274.8 89.0,274.8 95.4,261.0 101.7,261.0 108.1,261.0 114.4,261.0 120.8,247.2 127.1,247.2 133.5,233.4 139.8,219.6 146.2,219.6 152.5,233.4 158.9,219.6 165.2,205.8 171.5,205.8 177.9,205.8 184.2,205.8 190.6,205.8 196.9,192.0 203.3,150.6 209.6,178.2 216.0,164.4 222.3,164.4 228.7,164.4 235.0,164.4 241.4,164.4 247.7,164.4 254.1,164.4 260.4,164.4 266.8,164.4 273.1,150.6 279.4,150.6 285.8,150.6 292.1,136.8 298.5,136.8 304.8,136.8 311.2,136.8 317.5,136.8 323.9,123.0 330.2,123.0 336.6,123.0 342.9,123.0 349.3,123.0 355.6,123.0 362.0,123.0 368.3,109.2 374.6,109.2 381.0,109.2 387.3,109.2 393.7,109.2 400.0,109.2 406.4,95.4 412.7,95.4 419.1,95.4 425.4,95.4 431.8,95.4 438.1,81.6 444.5,81.6 450.8,81.6 457.2,81.6 463.5,81.6 469.8,81.6 476.2,81.6 482.5,81.6 488.9,81.6 495.2,81.6 501.6,81.6 507.9,81.6 514.3,81.6 520.6,81.6 527.0,81.6 533.3,81.6 539.7,81.6 546.0,81.6 552.4,81.6 558.7,81.6 565.1,81.6 571.4,81.6 577.7,67.8 584.1,67.8 590.4,67.8 596.8,67.8 603.1,67.8 609.5,67.8 615.8,67.8 622.2,67.8 628.5,67.8 634.9,67.8 641.2,67.8 647.6,67.8 653.9,67.8 660.3,67.8 666.6,67.8 672.9,67.8 679.3,67.8 685.6,67.8 692.0,67.8 698.3,67.8 704.7,67.8 711.0,67.8 717.4,67.8 723.7,67.8 730.1,67.8 736.4,67.8 742.8,67.8 749.1,67.8 755.5,67.8 761.8,67.8 768.2,67.8 774.5,67.8 780.8,67.8 787.2,67.8 793.5,67.8 799.9,67.8 806.2,67.8 812.6,67.8 818.9,67.8 825.3,67.8 831.6,67.8 838.0,67.8 844.3,67.8 850.7,67.8 857.0,67.8 863.4,67.8 869.7,67.8 876.0,67.8 882.4,67.8 888.7,67.8 895.1,67.8 901.4,67.8 907.8,67.8 914.1,67.8 920.5,67.8 926.8,67.8 933.2,67.8 939.5,67.8 945.9,67.8 952.2,67.8 958.6,67.8 964.9,67.8 971.2,67.8 977.6,67.8 983.9,67.8 990.3,67.8 996.6,67.8 1003.0,67.8 1009.3,67.8 1015.7,67.8 1022.0,67.8 1028.4,67.8 1034.7,67.8 1041.1,67.8 1047.4,67.8 1053.8,67.8 1060.1,67.8 1066.5,67.8 1072.8,67.8 1079.1,67.8 1085.5,67.8 1091.8,67.8 1098.2,67.8 1104.5,67.8 1110.9,67.8 1117.2,67.8 1123.6,67.8 1129.9,67.8 1136.3,67.8 1142.6,67.8 1149.0,67.8 1155.3,67.8 1161.7,67.8 1168.0,67.8" fill="none" stroke="#ff6b35" stroke-width="3" stroke-linejoin="round" stroke-linecap="round"/><polyline points="70.0,261.0 76.3,136.8 82.7,95.4 89.0,123.0 95.4,95.4 101.7,81.6 108.1,95.4 114.4,81.6 120.8,95.4 127.1,95.4 133.5,81.6 139.8,81.6 146.2,81.6 152.5,81.6 158.9,81.6 165.2,81.6 171.5,81.6 177.9,81.6 184.2,81.6 190.6,95.4 196.9,81.6 203.3,81.6 209.6,95.4 216.0,95.4 222.3,95.4 228.7,95.4 235.0,95.4 241.4,95.4 247.7,95.4 254.1,95.4 260.4,95.4 266.8,81.6 273.1,81.6 279.4,81.6 285.8,81.6 292.1,81.6 298.5,81.6 304.8,81.6 311.2,81.6 317.5,81.6 323.9,81.6 330.2,81.6 336.6,81.6 342.9,81.6 349.3,81.6 355.6,81.6 362.0,81.6 368.3,81.6 374.6,81.6 381.0,81.6 387.3,81.6 393.7,81.6 400.0,67.8 406.4,67.8 412.7,67.8 419.1,67.8 425.4,67.8 431.8,67.8 438.1,67.8 444.5,67.8 450.8,67.8 457.2,67.8 463.5,67.8 469.8,67.8 476.2,67.8 482.5,67.8 488.9,67.8 495.2,67.8 501.6,67.8 507.9,67.8 514.3,67.8 520.6,67.8 527.0,67.8 533.3,67.8 539.7,67.8 546.0,67.8 552.4,67.8 558.7,67.8 565.1,67.8 571.4,67.8 577.7,67.8 584.1,67.8 590.4,67.8 596.8,67.8 603.1,67.8 609.5,67.8 615.8,67.8 622.2,67.8 628.5,67.8 634.9,67.8 641.2,67.8 647.6,67.8 653.9,67.8 660.3,67.8 666.6,67.8 672.9,67.8 679.3,67.8 685.6,67.8 692.0,67.8 698.3,67.8 704.7,67.8 711.0,67.8 717.4,67.8 723.7,67.8 730.1,67.8 736.4,67.8 742.8,67.8 749.1,67.8 755.5,67.8 761.8,67.8 768.2,67.8 774.5,67.8 780.8,67.8 787.2,67.8 793.5,67.8 799.9,67.8 806.2,67.8 812.6,67.8 818.9,67.8 825.3,67.8 831.6,67.8 838.0,67.8 844.3,67.8 850.7,67.8 857.0,67.8 863.4,67.8 869.7,67.8 876.0,67.8 882.4,67.8 888.7,67.8 895.1,67.8 901.4,67.8 907.8,67.8 914.1,67.8 920.5,67.8 926.8,67.8 933.2,67.8 939.5,67.8 945.9,67.8 952.2,67.8 958.6,67.8 964.9,67.8 971.2,67.8 977.6,67.8 983.9,67.8 990.3,67.8 996.6,67.8 1003.0,67.8 1009.3,67.8 1015.7,67.8 1022.0,67.8 1028.4,67.8 1034.7,67.8 1041.1,67.8 1047.4,67.8 1053.8,67.8 1060.1,67.8 1066.5,67.8 1072.8,67.8 1079.1,67.8 1085.5,67.8 1091.8,67.8 1098.2,67.8 1104.5,67.8 1110.9,67.8 1117.2,67.8 1123.6,67.8 1129.9,67.8 1136.3,67.8 1142.6,67.8 1149.0,67.8 1155.3,67.8 1161.7,67.8 1168.0,67.8" fill="none" stroke="#7c5cff" stroke-width="3" stroke-linejoin="round" stroke-linecap="round"/><polyline points="70.0,330.0 76.3,330.0 82.7,330.0 89.0,330.0 95.4,330.0 101.7,330.0 108.1,330.0 114.4,330.0 120.8,330.0 127.1,330.0 133.5,330.0 139.8,330.0 146.2,330.0 152.5,330.0 158.9,330.0 165.2,330.0 171.5,330.0 177.9,330.0 184.2,330.0 190.6,330.0 196.9,330.0 203.3,56.8 209.6,56.8 216.0,56.8 222.3,56.8 228.7,56.8 235.0,56.8 241.4,56.8 247.7,56.8 254.1,54.0 260.4,54.0 266.8,54.0 273.1,54.0 279.4,54.0 285.8,54.0 292.1,54.0 298.5,54.0 304.8,54.0 311.2,54.0 317.5,54.0 323.9,54.0 330.2,54.0 336.6,54.0 342.9,54.0 349.3,54.0 355.6,54.0 362.0,54.0 368.3,54.0 374.6,54.0 381.0,54.0 387.3,54.0 393.7,54.0 400.0,54.0 406.4,54.0 412.7,54.0 419.1,54.0 425.4,54.0 431.8,54.0 438.1,54.0 444.5,54.0 450.8,54.0 457.2,54.0 463.5,54.0 469.8,54.0 476.2,54.0 482.5,54.0 488.9,54.0 495.2,54.0 501.6,54.0 507.9,54.0 514.3,54.0 520.6,54.0 527.0,54.0 533.3,54.0 539.7,54.0 546.0,54.0 552.4,54.0 558.7,54.0 565.1,54.0 571.4,54.0 577.7,54.0 584.1,54.0 590.4,54.0 596.8,54.0 603.1,54.0 609.5,54.0 615.8,54.0 622.2,54.0 628.5,54.0 634.9,54.0 641.2,54.0 647.6,54.0 653.9,54.0 660.3,54.0 666.6,54.0 672.9,54.0 679.3,54.0 685.6,54.0 692.0,54.0 698.3,54.0 704.7,54.0 711.0,54.0 717.4,54.0 723.7,54.0 730.1,54.0 736.4,54.0 742.8,54.0 749.1,54.0 755.5,54.0 761.8,54.0 768.2,54.0 774.5,54.0 780.8,54.0 787.2,54.0 793.5,54.0 799.9,54.0 806.2,54.0 812.6,54.0 818.9,54.0 825.3,54.0 831.6,54.0 838.0,54.0 844.3,54.0 850.7,54.0 857.0,54.0 863.4,54.0 869.7,54.0 876.0,54.0 882.4,54.0 888.7,54.0 895.1,54.0 901.4,54.0 907.8,54.0 914.1,54.0 920.5,54.0 926.8,54.0 933.2,54.0 939.5,54.0 945.9,54.0 952.2,54.0 958.6,54.0 964.9,54.0 971.2,54.0 977.6,54.0 983.9,54.0 990.3,54.0 996.6,54.0 1003.0,54.0 1009.3,54.0 1015.7,54.0 1022.0,54.0 1028.4,54.0 1034.7,54.0 1041.1,54.0 1047.4,54.0 1053.8,54.0 1060.1,54.0 1066.5,54.0 1072.8,54.0 1079.1,54.0 1085.5,54.0 1091.8,54.0 1098.2,54.0 1104.5,54.0 1110.9,54.0 1117.2,54.0 1123.6,54.0 1129.9,54.0 1136.3,54.0 1142.6,54.0 1149.0,54.0 1155.3,54.0 1161.7,54.0 1168.0,54.0" fill="none" stroke="#00a7a5" stroke-width="3" stroke-linejoin="round" stroke-linecap="round"/><polyline points="70.0,95.4 76.3,81.6 82.7,81.6 89.0,95.4 95.4,81.6 101.7,81.6 108.1,95.4 114.4,95.4 120.8,95.4 127.1,95.4 133.5,81.6 139.8,81.6 146.2,81.6 152.5,95.4 158.9,95.4 165.2,95.4 171.5,95.4 177.9,81.6 184.2,81.6 190.6,95.4 196.9,95.4 203.3,95.4 209.6,95.4 216.0,95.4 222.3,95.4 228.7,95.4 235.0,95.4 241.4,95.4 247.7,95.4 254.1,95.4 260.4,95.4 266.8,95.4 273.1,95.4 279.4,95.4 285.8,95.4 292.1,95.4 298.5,95.4 304.8,95.4 311.2,95.4 317.5,95.4 323.9,95.4 330.2,95.4 336.6,95.4 342.9,95.4 349.3,95.4 355.6,95.4 362.0,95.4 368.3,95.4 374.6,95.4 381.0,95.4 387.3,95.4 393.7,95.4 400.0,95.4 406.4,95.4 412.7,95.4 419.1,95.4 425.4,95.4 431.8,95.4 438.1,95.4 444.5,95.4 450.8,95.4 457.2,95.4 463.5,95.4 469.8,95.4 476.2,95.4 482.5,95.4 488.9,95.4 495.2,95.4 501.6,95.4 507.9,95.4 514.3,95.4 520.6,95.4 527.0,95.4 533.3,95.4 539.7,95.4 546.0,95.4 552.4,95.4 558.7,95.4 565.1,95.4 571.4,95.4 577.7,95.4 584.1,67.8 590.4,67.8 596.8,67.8 603.1,67.8 609.5,67.8 615.8,67.8 622.2,67.8 628.5,67.8 634.9,67.8 641.2,67.8 647.6,67.8 653.9,67.8 660.3,67.8 666.6,67.8 672.9,67.8 679.3,67.8 685.6,67.8 692.0,67.8 698.3,67.8 704.7,67.8 711.0,67.8 717.4,67.8 723.7,67.8 730.1,67.8 736.4,67.8 742.8,67.8 749.1,67.8 755.5,67.8 761.8,67.8 768.2,67.8 774.5,67.8 780.8,67.8 787.2,67.8 793.5,67.8 799.9,67.8 806.2,67.8 812.6,67.8 818.9,67.8 825.3,67.8 831.6,67.8 838.0,67.8 844.3,67.8 850.7,67.8 857.0,67.8 863.4,67.8 869.7,67.8 876.0,67.8 882.4,67.8 888.7,67.8 895.1,67.8 901.4,67.8 907.8,67.8 914.1,67.8 920.5,67.8 926.8,67.8 933.2,67.8 939.5,67.8 945.9,67.8 952.2,67.8 958.6,67.8 964.9,67.8 971.2,67.8 977.6,67.8 983.9,67.8 990.3,67.8 996.6,67.8 1003.0,67.8 1009.3,67.8 1015.7,67.8 1022.0,67.8 1028.4,67.8 1034.7,67.8 1041.1,67.8 1047.4,67.8 1053.8,67.8 1060.1,67.8 1066.5,67.8 1072.8,67.8 1079.1,67.8 1085.5,67.8 1091.8,67.8 1098.2,67.8 1104.5,67.8 1110.9,67.8 1117.2,67.8 1123.6,67.8 1129.9,67.8 1136.3,67.8 1142.6,67.8 1149.0,67.8 1155.3,67.8 1161.7,67.8 1168.0,67.8" fill="none" stroke="#e6a700" stroke-width="3" stroke-linejoin="round" stroke-linecap="round"/><polyline points="70.0,330.0 76.3,302.4 82.7,288.6 89.0,288.6 95.4,288.6 101.7,274.8 108.1,274.8 114.4,274.8 120.8,274.8 127.1,274.8 133.5,274.8 139.8,261.0 146.2,261.0 152.5,261.0 158.9,261.0 165.2,261.0 171.5,288.6 177.9,261.0 184.2,261.0 190.6,261.0 196.9,247.2 203.3,219.6 209.6,261.0 216.0,261.0 222.3,261.0 228.7,261.0 235.0,261.0 241.4,261.0 247.7,261.0 254.1,261.0 260.4,261.0 266.8,261.0 273.1,247.2 279.4,247.2 285.8,247.2 292.1,233.4 298.5,233.4 304.8,233.4 311.2,233.4 317.5,233.4 323.9,233.4 330.2,233.4 336.6,233.4 342.9,233.4 349.3,233.4 355.6,233.4 362.0,233.4 368.3,233.4 374.6,274.8 381.0,274.8 387.3,261.0 393.7,261.0 400.0,261.0 406.4,261.0 412.7,261.0 419.1,261.0 425.4,247.2 431.8,247.2 438.1,247.2 444.5,247.2 450.8,233.4 457.2,233.4 463.5,233.4 469.8,233.4 476.2,233.4 482.5,219.6 488.9,219.6 495.2,219.6 501.6,219.6 507.9,219.6 514.3,219.6 520.6,205.8 527.0,205.8 533.3,205.8 539.7,205.8 546.0,205.8 552.4,205.8 558.7,192.0 565.1,192.0 571.4,192.0 577.7,192.0 584.1,192.0 590.4,192.0 596.8,192.0 603.1,192.0 609.5,178.2 615.8,178.2 622.2,178.2 628.5,178.2 634.9,178.2 641.2,164.4 647.6,164.4 653.9,164.4 660.3,164.4 666.6,164.4 672.9,164.4 679.3,164.4 685.6,150.6 692.0,150.6 698.3,150.6 704.7,150.6 711.0,150.6 717.4,150.6 723.7,150.6 730.1,150.6 736.4,150.6 742.8,150.6 749.1,136.8 755.5,136.8 761.8,136.8 768.2,136.8 774.5,136.8 780.8,136.8 787.2,136.8 793.5,136.8 799.9,136.8 806.2,136.8 812.6,136.8 818.9,136.8 825.3,123.0 831.6,123.0 838.0,123.0 844.3,123.0 850.7,123.0 857.0,123.0 863.4,123.0 869.7,123.0 876.0,109.2 882.4,109.2 888.7,109.2 895.1,109.2 901.4,109.2 907.8,109.2 914.1,109.2 920.5,109.2 926.8,109.2 933.2,109.2 939.5,109.2 945.9,109.2 952.2,109.2 958.6,109.2 964.9,109.2 971.2,109.2 977.6,109.2 983.9,109.2 990.3,109.2 996.6,109.2 1003.0,109.2 1009.3,109.2 1015.7,95.4 1022.0,95.4 1028.4,95.4 1034.7,95.4 1041.1,95.4 1047.4,95.4 1053.8,95.4 1060.1,95.4 1066.5,95.4 1072.8,81.6 1079.1,81.6 1085.5,81.6 1091.8,81.6 1098.2,81.6 1104.5,81.6 1110.9,81.6 1117.2,81.6 1123.6,81.6 1129.9,81.6 1136.3,81.6 1142.6,81.6 1149.0,81.6 1155.3,81.6 1161.7,81.6 1168.0,81.6" fill="none" stroke="#d94f8a" stroke-width="3" stroke-linejoin="round" stroke-linecap="round"/><polyline points="70.0,330.0 76.3,274.8 82.7,67.8 89.0,67.8 95.4,54.0 101.7,54.0 108.1,54.0 114.4,54.0 120.8,67.8 127.1,54.0 133.5,54.0 139.8,54.0 146.2,54.0 152.5,67.8 158.9,54.0 165.2,54.0 171.5,54.0 177.9,54.0 184.2,54.0 190.6,81.6 196.9,81.6 203.3,81.6 209.6,81.6 216.0,81.6 222.3,81.6 228.7,81.6 235.0,81.6 241.4,81.6 247.7,81.6 254.1,81.6 260.4,81.6 266.8,81.6 273.1,81.6 279.4,81.6 285.8,81.6 292.1,81.6 298.5,81.6 304.8,81.6 311.2,81.6 317.5,81.6 323.9,81.6 330.2,81.6 336.6,81.6 342.9,81.6 349.3,81.6 355.6,81.6 362.0,81.6 368.3,81.6 374.6,81.6 381.0,81.6 387.3,81.6 393.7,81.6 400.0,81.6 406.4,81.6 412.7,81.6 419.1,81.6 425.4,81.6 431.8,81.6 438.1,81.6 444.5,81.6 450.8,81.6 457.2,81.6 463.5,81.6 469.8,81.6 476.2,81.6 482.5,81.6 488.9,81.6 495.2,81.6 501.6,81.6 507.9,81.6 514.3,81.6 520.6,81.6 527.0,81.6 533.3,81.6 539.7,81.6 546.0,81.6 552.4,81.6 558.7,81.6 565.1,81.6 571.4,81.6 577.7,81.6 584.1,81.6 590.4,81.6 596.8,81.6 603.1,81.6 609.5,81.6 615.8,81.6 622.2,81.6 628.5,81.6 634.9,81.6 641.2,81.6 647.6,81.6 653.9,81.6 660.3,81.6 666.6,81.6 672.9,81.6 679.3,81.6 685.6,81.6 692.0,81.6 698.3,81.6 704.7,81.6 711.0,81.6 717.4,81.6 723.7,81.6 730.1,81.6 736.4,81.6 742.8,81.6 749.1,81.6 755.5,81.6 761.8,81.6 768.2,81.6 774.5,81.6 780.8,81.6 787.2,81.6 793.5,81.6 799.9,81.6 806.2,81.6 812.6,81.6 818.9,81.6 825.3,81.6 831.6,81.6 838.0,81.6 844.3,81.6 850.7,81.6 857.0,81.6 863.4,81.6 869.7,81.6 876.0,81.6 882.4,81.6 888.7,81.6 895.1,81.6 901.4,81.6 907.8,81.6 914.1,81.6 920.5,81.6 926.8,81.6 933.2,81.6 939.5,81.6 945.9,81.6 952.2,81.6 958.6,81.6 964.9,81.6 971.2,81.6 977.6,81.6 983.9,81.6 990.3,81.6 996.6,81.6 1003.0,81.6 1009.3,81.6 1015.7,81.6 1022.0,81.6 1028.4,81.6 1034.7,81.6 1041.1,81.6 1047.4,81.6 1053.8,81.6 1060.1,81.6 1066.5,81.6 1072.8,81.6 1079.1,81.6 1085.5,81.6 1091.8,81.6 1098.2,81.6 1104.5,81.6 1110.9,81.6 1117.2,81.6 1123.6,81.6 1129.9,81.6 1136.3,81.6 1142.6,81.6 1149.0,81.6 1155.3,81.6 1161.7,81.6 1168.0,81.6" fill="none" stroke="#2589bd" stroke-width="3" stroke-linejoin="round" stroke-linecap="round"/><text x="70" y="358" text-anchor="middle" class="axis">base 52971b0</text><text x="228.67052023121389" y="358" text-anchor="middle" class="axis">PR #400</text><text x="380.99421965317924" y="358" text-anchor="middle" class="axis">PR #438</text><text x="539.6647398843932" y="358" text-anchor="middle" class="axis">PR #501</text><text x="698.335260115607" y="358" text-anchor="middle" class="axis">PR #572</text><text x="857.0057803468208" y="358" text-anchor="middle" class="axis">PR #646</text><text x="1009.3294797687862" y="358" text-anchor="middle" class="axis">PR #711</text><text x="1168" y="358" text-anchor="middle" class="axis">PR #769</text><line x1="70" y1="396" x2="96" y2="396" stroke="#ff6b35" stroke-width="4"/><text x="106" y="401" class="legend">Analytical database capability</text><line x1="619" y1="396" x2="645" y2="396" stroke="#7c5cff" stroke-width="4"/><text x="655" y="401" class="legend">Rust engineering quality</text><line x1="70" y1="424" x2="96" y2="424" stroke="#00a7a5" stroke-width="4"/><text x="106" y="429" class="legend">ClickHouse sustained parity</text><line x1="619" y1="424" x2="645" y2="424" stroke="#e6a700" stroke-width="4"/><text x="655" y="429" class="legend">Benchmark integrity and anti-gaming</text><line x1="70" y1="452" x2="96" y2="452" stroke="#d94f8a" stroke-width="4"/><text x="106" y="457" class="legend">ClickHouse feature comprehensiveness</text><line x1="619" y1="452" x2="645" y2="452" stroke="#2589bd" stroke-width="4"/><text x="655" y="457" class="legend">Evaluation progress accounting</text>
</svg>
